<?xml version="1.0" encoding="UTF-8" standalone="no"?>
<!DOCTYPE svg PUBLIC "-//W3C//DTD SVG 1.1//EN" "http://www.w3.org/Graphics/SVG/1.1/DTD/svg11.dtd">
<svg width="100%" height="100%" viewBox="0 0 1048 969" version="1.1" xmlns="http://www.w3.org/2000/svg" xmlns:xlink="http://www.w3.org/1999/xlink" xml:space="preserve" xmlns:serif="http://www.serif.com/" style="fill-rule:evenodd;clip-rule:evenodd;stroke-linejoin:round;stroke-miterlimit:2;">
    <g id="Artboard1" transform="matrix(0.973394,0,0,1.015762,0,-37.730632)">
        <rect x="0" y="37.145" width="1076" height="953.725" style="fill:none;"/>
        <clipPath id="_clip1">
            <rect x="0" y="37.145" width="1076" height="953.725"/>
        </clipPath>
        <g clip-path="url(#_clip1)">
            <g transform="matrix(1.027333,0,0,0.984482,-14.696546,4.130451)">
                <g id="vectorink-upscaled-image--1-.png" serif:id="vectorink-upscaled-image (1).png" transform="matrix(1.21416,0,0,1.144068,254.33512,198.642274)">
                    <path d="M460.418,276.123C457.066,276.265 453.876,276.465 449.189,270.755C446.512,267.493 445.831,267.668 442.07,263.929C436.823,258.712 440.415,256.535 437.365,249.559C434.874,243.861 434.79,243.732 431.761,242.007C423.764,237.455 424.235,236.287 420.456,235.854C413.342,235.037 413.956,233.465 410.379,230.657C407.903,228.713 402.529,227.445 400.504,227.376C397.143,227.262 389.59,230.547 389.536,230.572C383.816,233.223 383.814,233.848 377.518,233.283C371.288,232.724 363.19,235.57 358.516,235.802C354.142,236.019 346.603,233.913 344.428,230.552C343.088,228.482 341.75,226.776 341.836,221.508C341.885,218.562 343.599,212.221 345.459,207.482C347.408,202.515 349.482,203.066 353.245,194.392C358.17,183.041 357.707,178.154 355.304,168.543C355.16,167.966 354.488,165.279 352.029,161.876C350.378,159.592 342.892,153.896 338.402,152.94C330.873,151.336 328.453,150.865 323.776,153.935C320.287,156.225 318.578,158.431 318.508,158.508C311.069,166.78 312.088,175.014 312.275,176.528C313.011,182.473 314.047,187.753 318.461,188.688C326.666,190.426 328.039,187.07 331.362,182.393C334.771,177.593 332.377,175.355 332.598,172.515C332.747,170.598 336.575,169.861 336.542,176.5C336.517,181.664 330.127,188.548 328.78,189.777C326.413,191.937 326.705,192.185 324.614,194.597C320.588,199.242 319.753,200.853 319.437,201.464C317.105,205.966 316.714,207.007 316.526,207.51C310.649,223.164 312.056,226.016 313.366,233.524C314.636,240.803 319.073,244.674 318.146,246.317C317.207,247.982 314.499,245.077 310.79,242.127C305.83,238.182 303.743,232.525 301.563,229.438C300.796,228.352 298.982,228.298 298.72,230.536C298.335,233.828 300.337,238.079 301.886,241.327C305.173,248.22 311.204,253.723 312.549,255.456C313.314,256.442 313.324,256.42 317.553,260.445C318.883,261.711 321.048,263.284 320.879,264.66C320.604,266.91 314.755,262.58 309.621,260.232C301.707,256.613 297.487,251.512 296.511,251.417C296.193,251.387 293.712,251.495 296.634,255.411C304.466,265.907 305.644,265.839 307.225,266.91C315.942,272.812 323.829,274.893 328.454,276.626C341.092,281.36 351.801,280.49 354.208,281.994C354.627,282.255 355.516,282.811 358.114,286.764C360.418,290.27 356.063,293.712 355.224,298.45C354.413,303.028 354.595,303.987 354.685,304.461C355.308,307.741 360.32,306.757 364.502,306.669C370.375,306.544 368.988,311.909 373.796,316.147C376.745,318.747 376.99,318.478 379.572,321.44C382.051,324.283 390.273,326.587 389.365,333.481C389.004,336.222 384.878,341.278 388.446,343.575C388.682,343.727 388.947,343.832 389.179,343.99C389.444,344.17 391.579,345.623 391.187,347.449C390.474,350.763 387.015,350.833 389.401,356.544C393.735,366.917 392.276,373.482 394.85,378.315C398.126,384.467 393.529,390.468 394.414,399.508C395.243,407.972 394.395,408.163 395.864,411.34C398.073,416.116 396.586,416.562 395.988,419.693C395.955,419.867 396.044,420.049 396.01,420.223C394.669,422.63 393.76,423.298 393.494,423.494C391.553,424.922 391.968,425.342 386.428,430.414C385.904,430.894 385.899,430.856 385.373,431.363C384.924,431.796 380.821,435.753 379.593,436.601C378.817,437.138 376.726,439.138 376.419,439.412C372.158,443.208 371.784,442.724 367.484,446.481C367.135,446.786 365.858,447.71 365.715,447.814C365.301,448.114 360.599,451.517 360.541,451.553C359.296,452.328 357.378,454.014 357.213,454.136C356.323,454.79 349.528,458.779 347.35,460.276C345.88,461.287 345.826,461.156 344.26,462.035C341.05,463.837 340.993,463.725 340.718,463.888C340.576,463.973 340.5,464.149 340.353,464.225C339.831,464.496 339.253,464.646 338.733,464.921C338.586,464.999 338.517,465.181 338.376,465.27C337.054,466.11 336.972,465.923 335.643,466.753C333.934,467.82 327.961,470.763 327.731,470.908C327.587,470.998 327.515,471.179 327.371,471.268C326.587,471.75 326.502,471.518 325.695,471.933C325.571,471.997 325.521,472.164 325.396,472.225C324.551,472.635 324.484,472.415 323.642,472.819C323.114,473.072 323.238,473.352 310.489,478.471C306.983,479.879 306.891,479.599 306.594,479.74C306.471,479.798 306.418,479.959 306.295,480.019C306.019,480.154 305.711,480.209 305.422,480.314C304.106,480.791 303.937,481.057 302.496,481.49C302.192,481.582 301.88,481.647 301.58,481.752C300.936,481.976 294.835,484.1 293.471,484.395C293.073,484.482 289.424,485.272 288.508,485.53C288.105,485.644 287.747,485.885 287.346,486.008C287.129,486.075 284.234,486.451 283.541,486.651C281.07,487.364 281.042,487.158 278.552,487.754C276.546,488.233 276.543,488.145 274.501,488.507C263.708,490.419 254.86,490.934 253.439,491.251C251.493,491.685 251.504,491.675 249.506,491.664C244.1,491.633 243.955,492.463 240.5,492.425C229.01,492.296 228.993,492.737 225.537,492.14C222.361,491.592 215.666,491.659 213.515,491.393C212.459,491.262 212.496,491.136 211.43,490.987C208.793,490.619 198.396,489.636 186.474,487.608C184.9,487.341 184.936,487.28 183.411,486.843C181.707,486.355 178.856,485.7 174.452,484.705C170.883,483.899 170.984,483.608 167.457,482.649C163.639,481.61 158.99,479.215 153.579,477.315C152.823,477.05 148.175,474.892 147.44,474.628C144.766,473.669 144.347,473.227 143.384,472.734C142.858,472.464 136.479,469.561 135.729,469.1C133.604,467.796 133.496,468.027 131.391,466.699C128.801,465.063 121.844,461.703 117.389,458.677C115.698,457.527 115.528,457.816 112.405,455.643C109.754,453.798 109.643,453.974 107.191,451.877C106.032,450.885 105.977,450.995 104.642,450.229C102.828,449.188 99.605,446.215 99.194,445.835C98.306,445.016 98.18,445.139 96.376,443.661C95.272,442.758 95.286,442.77 94.198,441.87C93.234,441.072 84.695,434.01 82.337,431.666C81.289,430.625 78.359,428.115 77.596,427.399C76.804,426.656 76.769,426.718 75.948,426.027C75.771,425.878 75.652,425.672 75.51,425.49C73.429,422.822 73.112,423.036 71.924,420.306C71.883,419.697 71.759,419.097 71.718,418.488C71.491,415.119 74.6,413.718 74.771,405.507C75.005,394.3 74.27,393.703 73.405,389.519C71.824,381.863 75.358,380.302 76.646,372.522C77.519,367.251 78.697,367.152 79.08,363.454C79.399,360.375 79.226,360.35 80.211,357.401C81.952,352.195 77.01,351.092 80.338,346.389C84.49,340.521 78.787,337.701 79.863,333.59C80.868,329.751 84.107,327.084 84.627,326.656C88.497,323.468 90.262,324.593 95.809,317.745C98.128,314.883 98.234,314.966 99.909,311.696C102.386,306.859 103.904,308.492 111.494,308.305C116.18,308.19 115.162,306.129 114.23,301.549C112.684,293.948 107.267,292.022 112.19,287.178C115.07,284.345 114.471,282.971 118.517,282.854C123.02,282.725 122.993,282.572 127.458,282.078C131.779,281.6 143.308,278.329 151.382,274.269C155.75,272.073 156.032,272.506 158.666,270.769C161.605,268.831 161.824,269.049 163.595,267.616C167.794,264.22 171.343,259.593 171.933,258.824C172.82,257.668 175.867,254.655 174.382,253.716C172.724,252.668 169.07,257.272 158.576,262.651C151.562,266.246 150.802,267.682 149.677,267.13C148.207,266.408 150.035,264.459 150.192,264.291C150.816,263.626 155.653,258.467 158.089,256.075C162.519,251.724 168.242,242.073 169.474,238.491C172.364,230.09 167.427,230.945 166.56,231.581C164.498,233.092 167.168,234.897 161.175,241.184C158.58,243.906 158.205,243.722 156.424,245.418C154.534,247.216 152.934,248.49 152.546,248.633C150.191,249.5 150.479,247.685 150.508,247.501C150.624,246.766 153.962,243.692 155.811,235.568C157.406,228.559 157.224,226.339 156.91,223.45C156.811,222.541 155.66,216.815 155.21,215.61C149.321,199.849 145.422,197.302 144.563,196.437C142.898,194.758 142.445,193.771 140.845,192.198C138.574,189.964 138.603,189.958 136.732,187.351C133.003,182.153 132.473,176.312 133.995,173.849C134.295,173.364 136.918,171.82 136.333,175.477C135.416,181.216 137.187,182.869 138.585,185.45C141.74,191.275 144.62,190.176 149.521,189.716C153.487,189.344 154.676,189.818 156.078,184.392C157.979,177.032 158.498,176.834 156.191,169.596C154.435,164.085 149.127,156.159 142.374,153.902C138.197,152.507 128.887,155.63 125.473,157.455C123.81,158.345 118.076,162.845 116.7,164.646C114.485,167.546 113.059,172.862 112.911,173.593C109.314,191.348 119.967,200.902 123.525,209.49C123.729,209.983 125.358,213.915 126.017,215.684C128.357,221.972 126.833,228.295 126.421,229.471C124.192,235.835 119.817,236.468 113.54,237.71C110.006,238.409 106.901,236.818 103.531,236.294C95.997,235.122 94.291,235.22 93.484,235.267C87.889,235.589 87.539,236.956 82.679,234.177C82.144,233.87 78.833,231.977 75.6,231.129C69.433,229.513 68.116,229.482 65.409,230.168C59.883,231.568 57.657,233.582 57.113,234.074C53.026,237.773 52.602,237.518 49.425,238.006C44.003,238.839 42.135,241.048 39.55,242.577C34.429,245.607 33.68,247.805 31.919,251.688C29.734,256.503 30.853,256.783 30.234,259.449C28.095,268.653 23.854,268.241 18.447,273.446C12.365,279.302 11.745,278.967 6.672,278.244C6.381,278.018 6.28,278.316 5.988,278.088C5.94,278.051 5.927,278.041 5.619,277.424C4.586,275.352 4.479,273.626 4.35,272.514C3.999,269.488 3.44,253.19 3.424,247.5C3.388,234.533 4.151,229.58 4.239,228.481C5.471,213.032 8.809,200.776 9.211,198.43C9.825,194.842 9.742,194.85 9.798,194.541C9.813,194.458 10.916,190.276 11.155,188.431C11.462,186.058 12.966,181.072 13.539,178.51C14.543,174.017 15.892,170.612 16.525,167.506C17.102,164.672 17.473,164.583 18.398,161.461C19.382,158.137 21.304,154.658 23.496,149.498C24.362,147.463 27.696,140.079 27.88,139.708C27.95,139.567 28.109,139.483 28.181,139.343C28.296,139.121 29.445,136.891 29.59,136.545C31.235,132.621 32.985,129.573 33.476,128.488C34.203,126.882 36.091,124.182 36.421,123.458C37.956,120.086 40.673,116.03 41.445,114.469C41.757,113.838 41.825,113.898 42.24,113.334C44.684,110.014 43.799,109.397 50.397,101.421C52.001,99.483 51.766,99.331 53.393,97.408C55.013,95.492 54.751,95.304 56.466,93.469C58.438,91.358 58.022,91.055 59.894,88.85C60.36,88.301 60.364,88.327 60.826,87.765C63.68,84.293 63.869,84.472 64.111,84.167C64.796,83.305 64.694,83.251 65.385,82.406C70.02,76.737 70.479,76.934 71.103,76.144C72.301,74.628 72.11,74.477 74.273,72.289C78.85,67.657 78.868,67.684 79.255,67.271C79.644,66.857 83.116,63.164 84.414,62.389C85.182,61.931 86.475,60.196 87.891,58.927C87.939,58.883 88.936,58.196 95.621,52.669C96.178,52.208 96.185,52.237 96.729,51.775C98.63,50.163 98.72,50.3 100.684,48.769C104.814,45.55 107.706,43.669 108.338,43.257C111.246,41.366 118.08,36.688 120.487,35.478C120.733,35.354 127.096,31.187 128.493,30.49C131.071,29.203 131.091,29.249 131.312,29.131C131.448,29.059 131.519,28.894 131.656,28.826C132.199,28.559 132.795,28.411 133.333,28.136C133.466,28.068 133.507,27.877 133.64,27.812C134.18,27.547 134.783,27.426 135.321,27.16C135.467,27.088 135.518,26.885 135.663,26.812C136.198,26.54 136.793,26.4 137.334,26.14C137.464,26.077 137.528,25.917 137.656,25.851C137.788,25.782 139.512,25.046 139.674,24.976C145.039,22.683 145.018,22.658 145.485,22.461C148.932,21 148.993,21.168 149.291,21.039C149.425,20.981 149.48,20.803 149.614,20.743C150.171,20.491 150.782,20.371 151.338,20.117C151.462,20.06 151.5,19.881 151.624,19.826C152.19,19.573 152.806,19.446 153.376,19.204C153.501,19.151 153.57,19.006 153.694,18.949C154.531,18.561 154.567,18.698 155.427,18.331C159.376,16.644 159.388,16.735 163.457,15.354C164.968,14.841 164.97,14.922 166.481,14.44C166.889,14.31 167.251,14.055 167.66,13.925C168.259,13.734 168.897,13.682 169.494,13.483C169.892,13.351 170.229,13.069 170.628,12.938C171.237,12.739 171.877,12.653 172.5,12.499C173.442,12.267 176.904,11.092 178.552,10.682C180.797,10.124 186.056,8.716 186.526,8.631C190.25,7.964 190.214,7.803 190.54,7.756C192.62,7.457 192.613,7.508 194.633,6.984C194.874,6.922 198.952,6.412 199.46,6.288C199.985,6.159 199.914,5.914 201.525,5.748C205.056,5.386 204.992,5.094 208.524,4.702C212.604,4.25 233.526,1.243 257.509,4.442C272.254,6.408 274.46,7.261 275.515,7.437C275.995,7.516 278.631,7.954 281.462,8.673C305.936,14.882 321.034,22.177 321.557,22.359C325.263,23.65 327.083,24.824 328.565,25.364C330.388,26.028 333.285,27.843 334.578,28.336C338.382,29.786 338.167,30.193 340.584,31.363C341.591,31.851 341.473,32.031 342.494,32.51C345.47,33.907 345.93,34.551 347.556,35.411C348.92,36.132 352.791,38.63 353.24,38.919C354.752,39.895 354.638,40.007 354.769,40.088C355.242,40.38 355.78,40.556 356.25,40.853C356.344,40.913 356.325,40.917 357.37,41.688C360.771,44.202 363.116,46.272 363.497,46.505C364.993,47.418 365.508,48.116 368.616,50.338C370.095,51.396 370.196,51.236 371.554,52.435C375.349,55.782 376.056,56.239 376.487,56.517C378.151,57.591 380.868,60.161 385.89,65.113C389.134,68.312 389.211,68.236 389.438,68.56C389.844,69.144 389.922,69.06 390.397,69.592C390.564,69.78 390.616,70.053 390.787,70.238C390.946,70.409 391.199,70.471 391.365,70.636C391.532,70.802 391.598,71.053 391.769,71.216C391.947,71.387 392.211,71.448 392.39,71.616C392.734,71.939 394.122,73.506 394.269,73.673C397.131,76.906 397.296,77.151 397.519,77.483C397.915,78.072 397.973,77.99 398.478,78.521C398.649,78.7 398.728,78.953 398.898,79.132C399.057,79.299 399.297,79.374 399.454,79.543C399.626,79.727 399.7,79.987 399.869,80.173C400.02,80.339 400.25,80.419 400.401,80.584C400.574,80.773 400.662,81.027 400.828,81.222C400.901,81.307 400.914,81.273 401.781,82.254C403.994,84.757 403.775,84.898 403.966,85.113C404.114,85.278 404.365,85.325 404.517,85.486C404.693,85.673 404.764,85.941 404.931,86.136C405.603,86.925 405.64,86.872 406.317,87.653C408.782,90.498 412.39,95.221 412.543,95.463C412.922,96.062 412.976,95.999 413.436,96.546C413.635,96.781 415.07,98.571 415.212,98.748C415.71,99.369 415.49,99.494 415.988,100.117C416.122,100.284 416.372,100.328 416.51,100.493C416.685,100.703 416.74,100.994 416.904,101.213C417.022,101.371 417.225,101.449 417.344,101.606C417.511,101.828 417.585,102.111 417.75,102.335C417.857,102.48 418.052,102.549 418.149,102.701C418.448,103.173 418.621,103.717 418.924,104.185C419.036,104.358 419.25,104.442 419.379,104.602C419.544,104.806 419.63,105.066 419.798,105.267C419.933,105.429 420.147,105.514 420.28,105.678C420.964,106.52 420.878,106.556 421.843,108.306C422.717,109.889 422.834,109.79 423.775,111.349C423.923,111.595 424.924,113.252 425.549,114.47C425.87,115.095 425.918,115.045 426.316,115.61C426.625,116.048 426.502,116.107 429.789,121.331C431.632,124.261 431.365,124.382 431.84,125.324C431.913,125.468 432.112,125.517 432.193,125.656C432.479,126.152 432.63,126.719 432.928,127.206C433.031,127.374 433.258,127.432 433.375,127.589C433.544,127.815 433.611,128.104 433.772,128.336C433.87,128.478 434.059,128.546 434.144,128.696C434.432,129.207 434.599,129.78 434.876,130.297C435.198,130.898 435.288,130.822 435.578,131.457C436.049,132.492 436.167,132.41 436.633,133.427C436.917,134.045 436.968,134.001 437.312,134.598C437.78,135.407 437.547,135.478 437.946,136.307C438.007,136.434 438.174,136.488 438.239,136.613C438.673,137.447 438.432,137.519 438.84,138.353C438.902,138.479 439.076,138.528 439.133,138.657C439.38,139.214 439.472,139.836 439.742,140.383C439.816,140.531 440.062,140.539 440.136,140.687C440.406,141.228 440.489,141.848 440.748,142.395C440.807,142.519 441.003,142.534 441.069,142.656C441.14,142.787 441.002,142.831 441.703,144.41C442.882,147.064 442.786,147.092 442.895,147.319C442.96,147.453 443.127,147.516 443.197,147.647C443.28,147.803 443.251,147.79 444.11,149.656C445.246,152.123 445.105,152.157 446.065,154.685C446.812,156.651 446.953,156.565 447.011,156.736C447.069,156.908 446.936,157.108 446.996,157.279C447.045,157.418 447.244,157.456 447.313,157.586C447.56,158.049 448.622,161.115 448.729,161.424C450.467,166.44 451.875,170.312 452.548,174.489C452.671,175.255 454.316,181.269 454.374,181.534C454.511,182.16 455.703,185.456 456.207,188.563C456.782,192.105 458.994,199.7 459.521,204.497C459.693,206.066 459.977,205.994 460.207,207.55C460.653,210.565 460.89,210.504 461.359,213.524C461.599,215.069 461.7,215.034 462.034,216.556C462.115,216.925 462.04,217.105 462.391,220.513C463.399,230.29 463.209,232.073 463.379,234.509C464.616,252.194 463.01,271.489 462.606,273.524C462.12,275.979 461.429,275.599 460.418,276.123Z" style="fill:rgb(253,253,254);fill-opacity:1;"/>
                    <path d="M229.941,324.491C230.025,322.586 230.007,322.596 230.032,322.433C230.055,322.286 230.221,321.226 230.712,320.698C231.206,320.166 237.323,317.371 240.369,316.186C245.371,314.241 245.347,313.383 247.64,314.132C249.82,314.844 263.63,323.762 258.442,325.051C258.035,325.152 255.93,324.547 251.502,323.493C245.663,322.103 241.742,319.624 240.503,319.701C238.179,319.846 238.482,321.502 237.862,330.531C237.413,337.085 237.022,337.018 236.53,339.502C236.495,339.68 236.116,341.596 237.502,341.543C238.622,341.499 238.775,340.007 241.232,338.141C254.334,328.186 279.56,331.828 283.524,332.314C286.353,332.661 297.575,334.698 299.573,335.158C308.78,337.274 311.708,337.867 313.009,340.702C314.257,343.421 314.501,343.257 316.599,345.403C320.035,348.915 321.507,346.764 326.496,346.94C335.875,347.271 336.498,348.556 336.971,349.173C337.961,350.467 337.441,350.664 337.491,364.5C337.787,447.307 337.414,447.3 337.57,454.498C337.646,458.009 335.417,457.18 333.444,456.999C330.414,456.72 327.761,456.476 295.497,454.549C259.569,452.404 259.62,451.756 256.493,451.636C251.59,451.448 246.444,455.31 239.466,456.279C228.933,457.741 225.657,456.375 222.312,454.923C211.923,450.414 211.031,453.193 188.484,454.135C148.696,455.799 148.752,456.717 135.489,457.125C130.044,457.292 131.432,454.054 131.618,450.505C131.973,443.725 131.486,361.025 131.582,354.501C131.654,349.61 130.611,347.527 135.5,347.55C138.508,347.564 138.489,347.475 141.484,347.285C146.777,346.949 149.348,348.692 151.466,345.473C153.623,342.194 153.668,342.247 156.003,339.102C158.965,335.113 159.601,335.79 165.524,334.619C166.954,334.336 176.307,332.487 183.539,331.872C206.083,329.953 216.781,333.979 221.388,335.788C226.394,337.754 229.311,341.513 230.538,340.53C231.161,340.03 230.067,336.598 229.941,324.491Z" style="fill:rgb(20,14,18);"/>
                    <path d="M6.672,278.244C11.745,278.967 12.365,279.302 18.447,273.446C23.854,268.241 28.095,268.653 30.234,259.449C30.853,256.783 29.734,256.503 31.919,251.688C33.68,247.805 34.429,245.607 39.55,242.577C42.135,241.048 44.003,238.839 49.425,238.006C52.602,237.518 53.026,237.773 57.113,234.074C57.657,233.582 59.883,231.568 65.409,230.168C68.116,229.482 69.433,229.513 75.6,231.129C78.833,231.977 82.144,233.87 82.679,234.177C87.539,236.956 87.889,235.589 93.484,235.267C94.291,235.22 95.997,235.122 103.531,236.294C106.901,236.818 110.006,238.409 113.54,237.71C119.817,236.468 124.192,235.835 126.421,229.471C126.833,228.295 128.357,221.972 126.017,215.684C125.358,213.915 123.729,209.983 123.525,209.49C119.967,200.902 109.314,191.348 112.911,173.593C113.059,172.862 114.485,167.546 116.7,164.646C118.076,162.845 123.81,158.345 125.473,157.455C128.887,155.63 138.197,152.507 142.374,153.902C149.127,156.159 154.435,164.085 156.191,169.596C158.498,176.834 157.979,177.032 156.078,184.392C154.676,189.818 153.487,189.344 149.521,189.716C144.62,190.176 141.74,191.275 138.585,185.45C137.187,182.869 135.416,181.216 136.333,175.477C136.918,171.82 134.295,173.364 133.995,173.849C132.473,176.312 133.003,182.153 136.732,187.351C138.603,189.958 138.574,189.964 140.845,192.198C142.445,193.771 142.898,194.758 144.563,196.437C145.422,197.302 149.321,199.849 155.21,215.61C155.66,216.815 156.811,222.541 156.91,223.45C157.224,226.339 157.406,228.559 155.811,235.568C153.962,243.692 150.624,246.766 150.508,247.501C150.479,247.685 150.191,249.5 152.546,248.633C152.934,248.49 154.534,247.216 156.424,245.418C158.205,243.722 158.58,243.906 161.175,241.184C167.168,234.897 164.498,233.092 166.56,231.581C167.427,230.945 172.364,230.09 169.474,238.491C168.242,242.073 162.519,251.724 158.089,256.075C155.653,258.467 150.816,263.626 150.192,264.291C150.035,264.459 148.207,266.408 149.677,267.13C150.802,267.682 151.562,266.246 158.576,262.651C169.07,257.272 172.724,252.668 174.382,253.716C175.867,254.655 172.82,257.668 171.933,258.824C171.343,259.593 167.794,264.22 163.595,267.616C161.824,269.049 161.605,268.831 158.666,270.769C156.032,272.506 155.75,272.073 151.382,274.269C143.308,278.329 131.779,281.6 127.458,282.078C122.993,282.572 123.02,282.725 118.517,282.854C114.471,282.971 115.07,284.345 112.19,287.178C107.267,292.022 112.684,293.948 114.23,301.549C115.162,306.129 116.18,308.19 111.494,308.305C103.904,308.492 102.386,306.859 99.909,311.696C98.234,314.966 98.128,314.883 95.809,317.745C90.262,324.593 88.497,323.468 84.627,326.656C84.107,327.084 80.868,329.751 79.863,333.59C78.787,337.701 84.49,340.521 80.338,346.389C77.01,351.092 81.952,352.195 80.211,357.401C79.226,360.35 79.399,360.375 79.08,363.454C78.697,367.152 77.519,367.251 76.646,372.522C75.358,380.302 71.824,381.863 73.405,389.519C74.27,393.703 75.005,394.3 74.771,405.507C74.6,413.718 71.491,415.119 71.718,418.488C71.759,419.097 71.883,419.697 71.924,420.306C71.162,420.212 70.384,420.31 69.622,420.216C69.087,420.15 66.38,417.93 64.797,416.227C63.325,414.642 63.592,414.44 62.125,412.847C60.677,411.274 60.69,411.274 59.533,409.476C59.159,408.896 58.827,409.176 54.024,402.842C53.003,401.495 53.263,401.303 49.347,396.622C48.773,395.935 44.321,389.254 41.393,384.569C39.479,381.508 39.821,381.332 37.959,378.243C34.723,372.875 34.78,372.862 31.995,367.248C30.5,364.233 30.538,364.229 28.88,361.291C26.921,357.823 25.136,352.069 22.715,347.383C21.371,344.783 21.426,344.353 19.711,340.404C17.526,335.372 17.73,334.358 15.63,328.448C14.108,324.161 12.842,316.906 12.218,314.585C11.125,310.516 10,302.741 8.366,297.55C7.735,295.546 8.325,295.46 7.805,293.416C7.699,292.998 7.207,291.919 7.147,290.515C7.119,289.85 7.143,289.184 7.116,288.519C7.035,286.546 6.287,286.653 6.26,283.502C6.258,283.263 6.234,280.521 6.234,280.519C6.339,279.931 6.515,280.006 6.63,279.409C6.742,278.827 6.558,278.833 6.672,278.244Z" style="fill:rgb(2,2,3);fill-opacity:1;"/>
                    <path d="M460.418,276.123C460.571,276.236 462.324,277.542 462.324,277.542C462.726,278.272 462.937,281.939 462.545,283.511C462.238,284.743 461.985,284.692 461.854,287.517C461.713,290.557 461.063,290.464 460.953,293.515C460.862,296.048 460.288,295.943 460.038,298.473C459.998,298.873 459.856,300.31 459.036,303.407C458.851,304.105 458.571,304.775 458.383,305.472C457.97,307.001 458.142,307.021 457.708,308.562C457.404,309.639 456.445,313.986 456.34,314.459C455.986,316.062 455.464,316.727 454.855,319.558C453.64,325.206 448.992,339.196 446.797,344.624C445.945,346.732 446.046,346.754 444.955,348.761C444.171,350.203 443.873,353.094 441.785,356.657C440.515,358.825 440.195,360.597 438.239,363.329C436.449,365.83 434.101,372.802 431.25,376.304C429.877,377.99 429.847,378.966 428.349,381.407C427.044,383.534 426.945,383.458 425.692,385.614C424.973,386.851 424.751,386.669 423.995,387.866C423.907,388.005 422.564,390.84 420.306,393.322C418.958,394.804 417.83,397.433 415.193,400.201C413.707,401.761 413.604,401.67 412.526,403.517C411.953,404.499 410.415,405.8 409.74,406.679C408.634,408.122 408.768,408.207 407.569,409.561C405.106,412.338 405.56,412.706 402.627,415.636C401.718,416.543 400.666,418.428 399.356,419.274C399.112,419.431 398.756,419.408 398.554,419.617C398.33,419.847 398.349,420.234 398.168,420.5C397.697,421.193 397.575,421.178 397.5,421.168C396.574,421.049 396.921,420.34 396.01,420.223C396.044,420.049 395.955,419.867 395.988,419.693C396.586,416.562 398.073,416.116 395.864,411.34C394.395,408.163 395.243,407.972 394.414,399.508C393.529,390.468 398.126,384.467 394.85,378.315C392.276,373.482 393.735,366.917 389.401,356.544C387.015,350.833 390.474,350.763 391.187,347.449C391.579,345.623 389.444,344.17 389.179,343.99C388.947,343.832 388.682,343.727 388.446,343.575C384.878,341.278 389.004,336.222 389.365,333.481C390.273,326.587 382.051,324.283 379.572,321.44C376.99,318.478 376.745,318.747 373.796,316.147C368.988,311.909 370.375,306.544 364.502,306.669C360.32,306.757 355.308,307.741 354.685,304.461C354.595,303.987 354.413,303.028 355.224,298.45C356.063,293.712 360.418,290.27 358.114,286.764C355.516,282.811 354.627,282.255 354.208,281.994C351.801,280.49 341.092,281.36 328.454,276.626C323.829,274.893 315.942,272.812 307.225,266.91C305.644,265.839 304.466,265.907 296.634,255.411C293.712,251.495 296.193,251.387 296.511,251.417C297.487,251.512 301.707,256.613 309.621,260.232C314.755,262.58 320.604,266.91 320.879,264.66C321.048,263.284 318.883,261.711 317.553,260.445C313.324,256.42 313.314,256.442 312.549,255.456C311.204,253.723 305.173,248.22 301.886,241.327C300.337,238.079 298.335,233.828 298.72,230.536C298.982,228.298 300.796,228.352 301.563,229.438C303.743,232.525 305.83,238.182 310.79,242.127C314.499,245.077 317.207,247.982 318.146,246.317C319.073,244.674 314.636,240.803 313.366,233.524C312.056,226.016 310.649,223.164 316.526,207.51C316.714,207.007 317.105,205.966 319.437,201.464C319.753,200.853 320.588,199.242 324.614,194.597C326.705,192.185 326.413,191.937 328.78,189.777C330.127,188.548 336.517,181.664 336.542,176.5C336.575,169.861 332.747,170.598 332.598,172.515C332.377,175.355 334.771,177.593 331.362,182.393C328.039,187.07 326.666,190.426 318.461,188.688C314.047,187.753 313.011,182.473 312.275,176.528C312.088,175.014 311.069,166.78 318.508,158.508C318.578,158.431 320.287,156.225 323.776,153.935C328.453,150.865 330.873,151.336 338.402,152.94C342.892,153.896 350.378,159.592 352.029,161.876C354.488,165.279 355.16,167.966 355.304,168.543C357.707,178.154 358.17,183.041 353.245,194.392C349.482,203.066 347.408,202.515 345.459,207.482C343.599,212.221 341.885,218.562 341.836,221.508C341.75,226.776 343.088,228.482 344.428,230.552C346.603,233.913 354.142,236.019 358.516,235.802C363.19,235.57 371.288,232.724 377.518,233.283C383.814,233.848 383.816,233.223 389.536,230.572C389.59,230.547 397.143,227.262 400.504,227.376C402.529,227.445 407.903,228.713 410.379,230.657C413.956,233.465 413.342,235.037 420.456,235.854C424.235,236.287 423.764,237.455 431.761,242.007C434.79,243.732 434.874,243.861 437.365,249.559C440.415,256.535 436.823,258.712 442.07,263.929C445.831,267.668 446.512,267.493 449.189,270.755C453.876,276.465 457.066,276.265 460.418,276.123Z" style="fill:rgb(2,2,3);fill-opacity:1;"/>
                    <path d="M306.919,352.494C307.057,376.014 306.692,375.996 306.692,399.5C306.692,401.257 306.693,419.456 306.332,421.461C305.892,423.917 303.727,422.299 297.498,421.521C296.066,421.342 264.89,417.201 250.647,421.915C248.55,422.608 242.491,425.105 239.606,427.625C239.52,427.7 239.536,427.698 238.596,428.625C237.097,430.104 236.142,429.686 236.018,427.586C235.684,421.912 236.154,395.831 235.682,385.509C235.633,384.424 235.999,379.842 235.694,372.514C235.647,371.394 235.873,371.4 235.779,358.508C235.777,358.213 236.096,351.056 236.736,349.592C237.344,348.202 243.377,340.235 251.605,337.858C266.533,333.544 280.795,336.081 296.45,338.765C300.353,339.434 305.664,341.194 306.316,341.721C308.031,343.109 306.726,343.614 306.919,352.494Z" style="fill:rgb(251,247,250);fill-opacity:1;"/>
                    <path d="M162.141,371.497C162.177,357.487 161.999,357.506 161.881,343.496C161.856,340.489 161.451,339.58 164.435,339.08C190.673,334.681 200.446,335.216 207.504,336.476C218.187,338.382 219.806,339.571 222.278,340.89C223.294,341.433 228.071,344.797 228.67,345.291C231.232,347.403 231.503,347.719 231.725,350.479C232.29,357.5 232.063,366.383 232.074,368.497C232.32,419.853 231.709,419.867 232.532,430.502C232.547,430.691 232.695,432.599 231.501,432.635C230.118,432.677 230.542,430.487 224.57,427.366C216.852,423.332 212.966,422.078 205.493,420.534C193.525,418.063 168.516,420.552 165.434,421.016C165.211,421.05 163.255,421.344 162.676,420.409C162.019,419.348 162.39,414.081 162.141,371.497Z" style="fill:rgb(251,247,250);fill-opacity:1;"/>
                    <path d="M195.631,112.004C189.027,109.47 186.388,108.043 184.698,107.143C180.715,105.022 180.098,101.543 179.171,100.958C177.582,99.954 174.814,102.835 171.6,103.815C163.995,106.133 159.979,104.068 156.605,102.301C149.647,98.658 151.587,93.314 148.418,91.706C146.878,90.925 133.245,94.177 130.514,84.496C129.369,80.439 127.937,81.541 123.503,81.388C113.799,81.054 112.614,77.636 110.063,72.731C109.384,71.424 106.547,68.663 108.097,67.129C108.994,66.241 111.132,66.527 112.5,66.539C123.181,66.628 129.805,65.95 133.508,65.88C167.062,65.243 167.905,64.601 181.549,61.721C188.705,60.21 198.234,55.454 204.479,55.798C212.711,56.251 213.995,61.883 217.579,66.439C221.145,70.974 224.204,68.144 224.677,71.475C224.814,72.441 224.719,85.299 224.71,86.502C224.552,107.756 224.998,108.736 222.343,110.215C219.728,111.671 208.983,112.441 205.5,112.516C197.19,112.693 196.404,112.133 195.631,112.004Z" style="fill:rgb(1,0,1);fill-opacity:1;"/>
                    <path d="M272.615,111.85C272.428,111.913 267.817,114.249 256.499,112.506C254.205,112.153 244.478,111.843 243.116,108.684C242.738,107.806 242.473,107.786 242.46,83.5C242.454,72.25 242.427,71.703 243.728,70.856C244.906,70.09 246.042,70.561 249.169,67.199C252.775,63.322 253.226,63.653 254.724,60.613C256.884,56.229 257.72,56.44 263.471,56.864C267.538,57.163 267.708,56.305 272.584,58.298C279.323,61.052 279.445,60.636 286.477,62.582C299.42,66.166 316.43,65.415 326.522,66.24C327.323,66.305 341.786,67.043 349.501,67.081C358.106,67.123 359.668,66.83 359.877,68.422C360.062,69.836 359.262,70.26 354.653,77.603C351.006,83.412 341.167,81.472 340.507,81.554C337.175,81.969 339.464,84.917 334.138,89.031C327.152,94.425 321.412,90.556 319.31,92.236C317.638,93.572 316.504,97.915 313.186,101.202C310.241,104.12 302.154,107.52 295.269,103.934C288.729,100.528 288.04,101.603 286.031,104.116C283.352,107.469 281.447,107.479 278.375,109.278C275.671,110.862 274.885,111.09 272.615,111.85Z" style="fill:rgb(1,1,1);fill-opacity:1;"/>
                    <path d="M267.498,117.999C272.875,118.323 277.06,120.051 281.423,120.917C287.081,122.041 288.117,122.629 294.661,130.369C295.059,130.84 296.836,132.942 297.708,137.458C298.927,143.771 293.618,150.282 292.768,151.656C291.594,153.554 291.66,153.582 290.344,155.392C288.183,158.364 288.213,159.794 282.548,161.641C274.945,164.12 274.072,166.45 266.658,168.973C263.062,170.197 263.205,170.533 258.642,171.956C251.214,174.271 251.105,173.75 243.438,175.126C238.999,175.922 231.431,174.015 223.478,177.45C222.351,177.937 222.017,177.517 216.799,182.798C213.203,186.438 213.971,189.05 214.136,189.612C214.448,190.675 214.805,191.45 218.44,195.552C221.219,198.688 223.392,198.934 223.404,200.498C223.416,202.252 222.256,201.355 212.472,206.449C209.12,208.194 207.234,211.824 203.573,209.395C194.699,203.505 193.144,199.808 191.51,195.496C188.789,188.317 192.176,175.673 199.549,168.552C204.288,163.976 208.251,159.725 227.465,156.309C234.938,154.981 235.093,156.233 249.541,153.735C254.24,152.922 256.286,153.05 263.521,150.557C268.784,148.744 273.2,148.349 277.125,144.148C281.077,139.919 279.622,133.357 272.477,135.427C266.458,137.172 266.441,138.918 261.517,140.551C257.209,141.98 254.954,142.965 250.371,140.753C247.457,139.346 243.59,134.137 245.235,128.423C246.625,123.595 249.975,120.828 258.39,119.02C261.013,118.457 261.006,118.386 267.498,117.999Z" style="fill:rgb(1,1,1);fill-opacity:1;"/>
                    <path d="M143.588,351.361C143.945,353.372 143.951,353.358 143.973,353.533C144.017,353.876 143.933,354.229 143.977,354.572C143.726,360.402 143.312,370.029 144.076,427.506C144.31,445.101 144.418,445.746 145.542,446.433C147.38,447.556 158.268,445.369 176.478,444.202C185.713,443.61 185.705,443.667 186.507,443.612C214.794,441.692 215.426,439.247 224.248,443.976C230.636,447.4 234.342,449.56 244.648,444.844C251.56,441.68 251.807,441.193 266.458,442.906C276.486,444.079 289.843,443.767 310.498,445.523C323.151,446.598 324.19,447.864 324.808,445.603C325.178,444.246 325.913,370.151 325.231,359.519C324.825,353.194 321.228,353.642 322.564,351.54C323.324,350.344 329.831,350.907 331.459,351.576C333.862,352.565 332.658,353.583 332.798,384.5C332.822,389.782 333.077,446.031 332.858,450.523C332.733,453.084 330.713,452.853 328.486,452.666C314.486,451.493 314.473,451.865 300.479,450.738C281.727,449.228 281.714,449.525 275.534,449.038C254.558,447.385 254.216,446.465 245.368,450.183C233.13,455.325 226.804,452.328 221.606,450.231C212.841,446.695 212.492,448.674 188.511,449.744C173.718,450.404 173.141,450.659 164.475,451.123C150.543,451.868 138.209,453.275 136.485,452.526C134.828,451.807 135.67,451.134 135.642,429.5C135.634,423.5 135.548,357.31 135.613,354.504C135.692,351.059 137.614,351.333 141.497,351.025C143.056,350.901 143.247,351.306 143.588,351.361Z" style="fill:rgb(250,248,250);"/>
                    <path d="M209.719,214.885C224.645,206.441 225.144,206.266 226.593,205.759C231.063,204.194 231.048,204.187 235.374,202.227C241.473,199.464 244.254,198.164 246.946,194.855C248.328,193.156 250.382,191.39 251.194,189.391C253.462,183.809 244.073,178.2 251.499,178.364C261.077,178.575 266.765,173.961 268.458,173.389C274.233,171.438 275.661,185.276 275.785,186.469C276.284,191.311 274.207,196.685 273.212,198.327C269.897,203.796 269.21,204.387 266.444,206.424C264.407,207.923 264.665,208.213 262.629,209.696C261.636,210.419 261.577,210.304 260.776,210.879C253.919,215.799 251.439,215.334 242.548,217.686C240.769,218.156 234.083,220.566 233.632,220.782C229.899,222.57 216.421,226.326 220.79,235.362C223.37,240.698 225.208,241.64 224.546,243.529C224.221,244.457 223.895,244.138 220.422,245.275C213.8,247.442 211.918,251.221 209.437,250.964C208.232,250.84 203.524,246.838 200.254,242.687C198.495,240.456 192.824,234.864 201.246,223.325C205.794,217.093 206.763,216.582 209.719,214.885Z" style="fill:rgb(2,1,1);fill-opacity:1;"/>
                    <path d="M242.68,55.922C238.649,57.447 237.628,57.697 237.632,61.5C237.662,85.849 237.909,85.831 237.471,110.5C237.334,118.231 237.882,147.048 237.085,149.391C236.886,149.974 236.556,151.76 231.501,151.825C228.212,151.867 228.356,150.499 228.306,144.501C228.273,140.479 228.329,85.892 228.229,67.502C228.192,60.772 229.09,58.997 226.437,57.611C222.724,55.671 219.646,54.693 217.645,47.466C216.295,42.592 218.804,32.261 226.477,29.442C237.367,25.443 244.512,31.3 246.255,34.631C250.78,43.285 248.88,48.365 246.555,52.533C246.472,52.683 246.074,53.395 245.238,54.229C244.005,55.459 243.02,55.745 242.68,55.922Z" style="fill:rgb(2,0,1);fill-opacity:1;"/>
                    <path d="M203.421,159.405C200.333,161.853 200.011,161.414 197.15,164.128C192.85,168.208 192.167,165.254 186.638,163.13C181.657,161.216 177.43,159.208 172.628,150.431C164.537,135.643 173.164,127.644 177.263,124.207C183.02,119.38 194.237,116.521 200.496,117.528C208.754,118.856 216.027,120.214 220.145,128.677C221.207,130.859 222.405,137.508 219.525,139.531C218.007,140.598 212.369,143.635 207.637,142.085C197.939,138.908 195.929,133.602 189.457,135.345C183.075,137.064 189.811,145.203 193.686,147.126C193.857,147.211 203.359,151.05 208.444,151.811C214.131,152.662 214.136,152.612 214.345,152.75C214.46,152.826 215.38,153.43 214.474,154.471C213.677,155.388 209.729,154.048 203.421,159.405Z" style="fill:rgb(2,1,1);fill-opacity:1;"/>
                    <path d="M245.29,227.66C245.038,227.351 242.727,224.513 242.564,223.484C242.26,221.561 242.852,221.607 244.656,220.906C249.267,219.113 249.246,219.068 249.655,218.938C253.578,217.69 253.615,217.869 257.515,216.55C257.952,216.402 259.877,215.427 261.069,217.726C263.635,222.674 263.904,222.524 266.055,227.685C270.186,237.592 267.976,239.646 265.423,243.446C260.371,250.967 258.799,251.115 254.732,253.847C247.913,258.428 238.401,259.853 230.648,263.807C225.084,266.644 224.806,266.999 224.451,267.452C221.481,271.246 225.003,274.672 223.377,276.397C222.949,276.851 222.905,276.769 220.75,277.946C219.626,278.56 214.644,282.283 213.532,282.604C212.864,282.796 209.897,283.652 207.272,276.583C206.263,273.866 206.381,268.076 207.643,264.547C210.301,257.114 212.589,256.376 214.624,254.649C217.285,252.394 217.432,252.639 221.36,250.266C228.261,246.098 230.283,246.479 233.448,245.346C241.17,242.583 243.722,241.074 244.554,240.581C248.831,238.05 248.314,231.931 245.29,227.66Z" style="fill:rgb(2,1,1);fill-opacity:1;"/>
                    <path d="M250.534,437.926C247.305,438.627 247.444,438.993 244.424,440.329C241.951,441.422 241.978,441.449 239.543,442.593C239.387,442.667 238.044,443.298 237.511,443.309C235.425,443.353 236.599,437.055 236.781,436.604C236.925,436.246 237.423,435.012 239.816,432.85C240.199,432.504 246.12,428.129 251.503,426.511C265.647,422.258 282.046,424.274 299.535,426.208C305.994,426.923 306.709,428.272 311.868,434.178C313.361,435.888 314.063,437.007 315.527,438.475C319.854,442.814 313.587,441.606 312.499,441.521C295.549,440.2 287.951,440.756 258.523,438.236C254.908,437.927 251.174,437.926 250.534,437.926Z" style="fill:rgb(252,248,252);"/>
                    <path d="M242.398,263.355C242.735,263.228 245.923,262.023 246.606,261.747C254.46,258.565 254.589,258.575 255.225,258.925C255.783,259.231 259.42,266.506 258.425,273.49C257.322,281.23 256.821,281.169 254.21,284.259C247.758,291.897 233.024,291.951 226.565,296.605C226.273,296.816 224.067,297.165 224.699,304.481C224.977,307.704 225.825,308.07 224.332,309.27C222.244,310.948 217.537,307.275 212.694,298.396C210.373,294.143 212.854,291.051 215.318,288.34C215.623,288.004 215.664,288.053 219.392,284.39C223.12,280.725 230.479,279.058 236.363,274.335C238.84,272.346 239.083,272.609 241.014,270.102C242.777,267.811 241.99,264.541 242.009,264.283C242.035,263.949 242.373,263.69 242.398,263.355Z" style="fill:rgb(2,1,1);fill-opacity:1;"/>
                    <path d="M221.473,430.548C231.301,436.292 231.63,437.97 231.933,439.414C231.986,439.668 232.514,442.183 231.615,442.64C230.05,443.434 230.045,442.629 227.56,441.384C220.516,437.854 220.505,436.507 206.512,437.649C201.211,438.081 183.347,439.927 164.531,440.946C157.947,441.303 152.601,442.372 151.881,441.225C150.963,439.764 153.372,438.153 158.936,430.835C159.893,429.575 161.461,427.912 161.691,427.667C163.682,425.554 165.481,425.806 170.436,425.075C171.438,424.927 193.036,422.378 205.424,424.886C214.266,426.675 218.293,428.79 221.473,430.548Z" style="fill:rgb(252,248,252);"/>
                    <path d="M158.081,344.758C158.098,344.993 158.344,345.298 158.208,346.516C157.731,350.775 157.987,350.772 158.296,393.5C158.463,416.688 159.166,422.484 158.132,424.299C158.05,424.442 155.563,428.064 155.339,428.391C154.044,430.277 152.4,431.98 150.517,435.515C150.436,435.666 149.632,437.176 148.571,436.428C147.82,435.898 148.473,435.341 148.348,419.501C147.865,357.824 147.863,357.566 148.844,355.64C149.386,354.576 151.269,352.975 153.074,350.225C153.462,349.634 156.626,344.719 156.633,344.717C156.741,344.674 156.74,344.72 158.081,344.758Z" style="fill:rgb(252,247,250);fill-opacity:1;"/>
                    <path d="M320.756,360.465C321.61,367.597 321.333,376.59 320.822,420.504C320.652,435.08 320.787,435.09 320.924,436.601C321.007,437.522 321.062,437.645 320.278,438.116C319.792,438.407 319.748,438.272 319.362,437.876C317.196,435.662 317.559,435.401 315.028,431.853C311.747,427.254 311.172,427.236 311.348,421.496C311.568,414.369 311.786,395.742 311.812,393.502C311.941,382.474 311.765,382.483 312.277,354.494C312.284,354.101 312.359,349.992 312.674,349.602C312.761,349.493 314.163,348.785 315.14,349.866C315.699,350.485 315.59,350.56 318.752,355.34C320.709,358.299 320.607,359.703 320.756,360.465Z" style="fill:rgb(251,248,250);"/>
                    <path d="M240.401,298.49C238.723,297.756 238.748,297.705 238.59,297.697C238.042,297.669 235.289,299.535 233.659,301.617C233.376,301.979 232.848,303.1 231.775,303.993C231.285,304.4 229.54,305.171 229.152,302.558C228.631,299.044 230.409,298.128 230.756,297.95C235.966,295.266 239.656,295.351 240.459,295.369C245.092,295.475 253.701,289.36 254.485,289.297C257.715,289.035 256.436,297.457 256.19,298.432C255.523,301.077 254.461,302.255 250.092,306.054C248.66,307.298 248.473,307.036 246.124,309.072C243.901,310.999 243.09,310.583 236.705,313.905C232.135,316.282 231.998,315.959 227.382,318.255C225.545,319.17 220.574,321.786 215.612,323.77C214.997,324.016 208.583,326.58 207.518,325.479C206.164,324.081 209.742,321.833 210.386,321.345C215.602,317.394 220.793,315.69 228.306,310.213C231.434,307.933 233.996,306.421 238.563,301.558C239.807,300.232 239.61,300.118 240.401,298.49Z" style="fill:rgb(6,4,4);fill-opacity:0.99;"/>
                    <path d="M252.389,395.126C246.844,396.921 241.001,400.654 240.003,397.684C239.56,396.363 240.45,395.292 245.378,393.212C263.474,385.573 278.432,388.158 285.509,389.448C288.947,390.075 297.179,391.979 298.43,392.63C300.129,393.515 301.362,397.569 296.545,396.336C287.592,394.044 287.648,393.831 278.489,392.579C275.073,392.112 266.483,392.053 263.507,392.543C260.457,393.046 259.387,393.36 252.389,395.126Z" style="fill:rgb(18,12,12);fill-opacity:0.98;"/>
                    <path d="M182.58,388.844C183.911,388.576 190.995,387.15 199.499,387.525C200.63,387.575 207.823,387.892 213.516,389.437C219.547,391.074 220.567,391.127 221.514,391.462C223.942,392.321 223.496,394.501 223.009,395.012C221.059,397.053 217.086,393.501 203.537,392.085C196.09,391.306 186.986,392.225 184.562,392.776C174.458,395.076 170.798,397.281 168.397,398.19C165.727,399.2 165.567,396.934 165.597,396.505C165.747,394.282 168.632,393.267 169.648,392.886C177.254,390.037 181.522,389.081 182.58,388.844Z" style="fill:rgb(21,13,15);fill-opacity:1;"/>
                    <path d="M258.413,367.012C252.477,368.185 245.558,370.84 243.649,371.815C243.269,372.009 237.797,374.804 238.475,370.491C238.603,369.677 238.792,368.479 247.514,365.542C256.29,362.587 267.639,360.914 277.513,362.403C279.157,362.651 295.462,365.11 297.707,367.307C298.653,368.233 299.013,371.208 294.605,370.062C294.008,369.907 291.265,368.879 283.525,367.371C271.945,365.114 266.332,365.677 258.413,367.012Z" style="fill:rgb(15,11,12);fill-opacity:0.97;"/>
                    <path d="M169.594,367.711C170.817,367.175 176.164,364.834 185.578,362.88C201.357,359.604 220.568,364.974 223.547,366.415C225.348,367.287 224.711,369.123 224.423,369.435C222.159,371.886 219.621,367.534 200.523,366.091C195.676,365.724 186.857,366.521 182.58,367.77C175.886,369.726 175.924,369.775 169.388,372.163C165.643,373.531 165.597,370.636 167.116,369.138C168.028,368.238 168.142,368.415 169.594,367.711Z" style="fill:rgb(18,13,15);fill-opacity:0.99;"/>
                    <path d="M252.609,402.946C252.766,402.916 268.102,398.911 288.437,402.83C298.945,404.855 299.004,405.643 299.072,406.542C299.085,406.716 299.167,407.797 297.464,408.023C297.141,408.066 290.001,406.606 287.516,406.343C273.96,404.908 270.279,405.207 269.493,405.228C251.731,405.71 245.62,409.077 243.354,410.183C239.163,412.228 238.996,409.435 239.313,408.43C239.853,406.718 244.252,405.252 252.609,402.946Z" style="fill:rgb(22,15,16);fill-opacity:0.98;"/>
                    <path d="M174.374,409.078C169.145,410.855 165.77,413.019 165.375,410.536C164.917,407.656 169.053,406.824 173.493,405.477C175.531,404.859 190.314,399.514 211.422,402.965C212.004,403.06 217.112,404.189 219.48,404.61C219.791,404.665 222.672,405.176 223.27,405.728C223.864,406.276 224.667,408.656 221.501,408.458C219.59,408.338 210.326,405.334 189.487,406.253C185.698,406.42 182.172,407.053 174.374,409.078Z" style="fill:rgb(24,17,19);fill-opacity:0.99;"/>
                    <path d="M258.576,353.907C248.627,356.154 248.625,356.151 244.309,358.059C242.535,358.844 239.026,360.552 238.794,358.395C238.608,356.669 238.355,354.571 249.579,351.836C267.71,347.42 296.084,351.753 297.781,353.181C298.966,354.179 299.162,356.986 295.518,356.372C293.752,356.074 287.496,354.105 274.517,353.271C267.254,352.804 259.842,353.746 258.576,353.907Z" style="fill:rgb(23,17,19);"/>
                    <path d="M181.429,381.003C171.609,382.573 167.863,386.643 166.113,384.87C164.927,383.668 166.139,381.442 167.651,380.865C183.398,374.854 200.128,376.24 209.478,376.827C218.584,377.399 222.792,379.244 223.355,379.679C224.542,380.596 224.766,382.9 221.501,382.491C217.666,382.011 217.785,380.561 201.515,380.042C192.521,379.755 188.419,380.012 181.429,381.003Z" style="fill:rgb(18,11,15);fill-opacity:0.99;"/>
                    <path d="M293.589,382.054C289.511,381.219 289.543,381.152 285.477,380.723C269.635,379.055 267.624,379.543 261.462,380.138C249.844,381.259 248.026,382.833 242.337,385.063C239.531,386.162 237.704,386.418 238.565,383.531C238.776,382.824 238.881,381.287 247.578,378.779C251.911,377.529 261.905,376.413 265.488,376.227C273.508,375.812 297.632,377.73 298.52,380.492C299.324,382.991 295.799,382.424 295.519,382.379C294.875,382.275 294.233,382.158 293.589,382.054Z" style="fill:rgb(16,10,12);fill-opacity:0.97;"/>
                    <path d="M217.578,355.152C212.097,353.954 212.104,353.952 206.505,353.445C184.662,351.465 173.542,357.809 169.583,358.847C166.073,359.767 165.72,356.838 168.433,355.382C181.869,348.174 206.65,349.728 214.438,350.907C225.74,352.619 226.646,353.614 226.47,355.494C226.289,357.421 223.747,356.52 217.578,355.152Z" style="fill:rgb(24,18,20);fill-opacity:0.98;"/>
                    <path d="M238.038,190.467C237.724,195.06 237.788,195.367 235.629,196.723C233.822,197.859 230.88,198.797 230.505,198.804C228.593,198.841 228.15,197.342 228.083,192.51C227.94,182.268 227.903,182.264 228.122,181.403C228.683,179.204 232.134,179.804 233.472,179.884C233.871,179.908 237.317,180.115 238.127,181.712C238.705,182.851 238.43,183.241 238.038,190.467Z" style="fill:rgb(6,3,4);fill-opacity:0.99;"/>
                    <path d="M238.82,226.506C238.488,233.72 238.66,233.707 238.742,236.494C238.814,238.911 236.993,239.546 232.423,241.29C228.565,242.763 228.492,239.878 228.472,234.5C228.444,227.065 229.18,226.463 235.347,224.092C235.516,224.027 237.212,223.374 237.507,223.392C238.47,223.448 238.718,224.287 238.755,224.41C238.803,224.571 238.76,224.565 238.82,226.506Z" style="fill:rgb(3,1,2);fill-opacity:0.99;"/>
                    <path d="M238.5,264.494C238.672,264.873 238.996,265.169 239.168,265.547C239.648,266.598 239.259,266.608 238.639,267.573C237.142,269.903 236.316,270.759 234.707,271.868C228.51,276.138 228.699,271.988 228.764,271.517C229.283,267.787 233.504,266.46 238.5,264.494Z" style="fill:rgb(14,9,10);fill-opacity:0.97;"/>
                    <path d="M143.588,351.361C143.856,351.273 144.075,351.832 144.344,351.744C144.832,351.585 145.045,350.958 145.508,350.734C145.782,350.602 146.142,350.619 146.421,350.741C147.998,351.431 146.858,352.556 146.747,352.665C145.893,353.508 145.481,353.238 145.305,353.339C145.18,353.411 145.207,353.43 143.977,354.572C143.933,354.229 144.017,353.876 143.973,353.533C143.951,353.358 143.945,353.372 143.588,351.361Z" style="fill:rgb(124,115,119);"/>
                </g>
                <g>
                    <g transform="matrix(0.997234,-0.074325,0.074325,0.997234,-42.262363,33.604308)">
                        <g transform="matrix(0.467081,0.507002,-0.468578,0.431683,692.396046,-748.154949)">
                            <path d="M488.446,1300.47C491.138,1313.19 492.305,1326.97 492.337,1341.21C492.372,1355.45 491.278,1370.15 489.212,1384.74C481.53,1383.23 474.303,1379.02 468.009,1371.92C464.906,1368.37 462.051,1364.11 459.5,1359.11C458.23,1356.61 457.088,1353.94 456.006,1351.07C454.939,1348.21 453.916,1345.16 453.086,1341.95C452.236,1338.73 451.503,1335.4 450.885,1331.97C450.307,1328.55 449.856,1325.05 449.512,1321.46C449.427,1320.56 449.347,1319.66 449.277,1318.76C449.218,1317.85 449.167,1316.94 449.122,1316.03C449.032,1314.21 448.971,1312.37 448.937,1310.51C448.911,1308.65 448.88,1306.77 448.936,1304.9C448.983,1303.02 449.059,1301.12 449.161,1299.22C449.984,1283.99 452.953,1268.15 457.834,1252.86C465.162,1255.65 471.471,1261.22 476.654,1269.26C479.235,1273.28 481.478,1277.89 483.479,1283.11C484.467,1285.72 485.369,1288.47 486.178,1291.36C487.025,1294.25 487.784,1297.29 488.446,1300.47Z" style="fill:rgb(59,181,74);fill-rule:nonzero;"/>
                        </g>
                        <g transform="matrix(0.467081,0.507002,-0.468578,0.431683,692.396046,-748.154949)">
                            <path d="M539.36,1314.52C530.774,1323.23 523.31,1334.24 517.453,1346.68C511.599,1359.11 507.366,1372.96 505.017,1387.17C512.797,1388.04 520.969,1386.3 529.055,1382.12C533.142,1380.04 537.222,1377.34 541.228,1374.06C543.238,1372.42 545.28,1370.64 547.274,1368.71C549.282,1366.78 551.225,1364.69 553.235,1362.48C555.226,1360.26 557.143,1357.95 558.984,1355.55C560.865,1353.16 562.684,1350.69 564.418,1348.14C565.274,1346.86 566.136,1345.57 567.003,1344.27C567.858,1342.96 568.693,1341.64 569.508,1340.3C570.332,1338.96 571.102,1337.6 571.912,1336.23C572.714,1334.86 573.497,1333.48 574.259,1332.08C580.367,1320.91 585.591,1308.89 589.861,1296.52C582.355,1294.34 574.045,1294.46 565.479,1297.33C561.187,1298.77 556.772,1300.87 552.424,1303.73C550.238,1305.16 548.042,1306.76 545.842,1308.56C543.68,1310.36 541.518,1312.34 539.36,1314.52Z" style="fill:rgb(59,181,74);fill-rule:nonzero;"/>
                        </g>
                        <g transform="matrix(0.467081,0.507002,-0.468578,0.431683,692.396046,-748.154949)">
                            <path d="M467.167,1401.6C471.838,1414.32 475.1,1428.36 477.323,1443.03C479.524,1457.71 480.623,1473.03 480.724,1488.38C472.588,1488 464.459,1484.77 456.923,1478.4C453.187,1475.22 449.568,1471.26 446.192,1466.49C444.528,1464.11 442.918,1461.52 441.368,1458.73C440.594,1457.34 439.832,1455.89 439.092,1454.4C438.372,1452.9 437.668,1451.35 436.982,1449.76C436.296,1448.16 435.636,1446.53 435.002,1444.87C434.369,1443.21 433.751,1441.51 433.205,1439.79C432.092,1436.36 431.083,1432.8 430.179,1429.15C429.317,1425.5 428.581,1421.75 427.938,1417.93C427.606,1416.01 427.353,1414.08 427.112,1412.13C426.873,1410.18 426.66,1408.21 426.474,1406.23C425.04,1390.38 425.737,1373.55 428.509,1357.02C432.489,1357.91 436.327,1359.57 439.976,1361.94C441.801,1363.12 443.578,1364.48 445.301,1366.02C446.163,1366.79 447.011,1367.6 447.845,1368.45C448.689,1369.31 449.521,1370.21 450.338,1371.15C451.972,1373.03 453.549,1375.08 455.063,1377.3C456.587,1379.51 458.003,1381.88 459.436,1384.43C462.28,1389.52 464.791,1395.24 467.167,1401.6Z" style="fill:rgb(59,181,74);fill-rule:nonzero;"/>
                        </g>
                        <g transform="matrix(0.467081,0.507002,-0.468578,0.431683,692.396046,-748.154949)">
                            <path d="M521.758,1408.44C514.205,1418.7 508.154,1431.17 504.037,1444.87C499.896,1458.56 497.629,1473.47 497.38,1488.47C505.541,1488.18 513.655,1485.14 521.383,1479.6C525.278,1476.83 529.045,1473.44 532.688,1469.45C534.534,1467.46 536.341,1465.31 538.101,1463.02C538.982,1461.88 539.849,1460.69 540.708,1459.48C541.586,1458.26 542.453,1457 543.307,1455.71C544.161,1454.42 544.992,1453.11 545.8,1451.77C546.609,1450.44 547.385,1449.09 548.184,1447.72C549.76,1444.98 551.245,1442.16 552.639,1439.27C554.075,1436.39 555.44,1433.45 556.703,1430.45C557.323,1428.94 557.973,1427.43 558.586,1425.91C559.201,1424.38 559.793,1422.84 560.363,1421.29C564.976,1408.89 568.558,1395.76 571.116,1382.43C567.08,1381.86 562.941,1381.91 558.749,1382.63C556.652,1383 554.543,1383.53 552.426,1384.23C551.368,1384.58 550.308,1384.97 549.247,1385.41C548.196,1385.85 547.146,1386.33 546.095,1386.86C543.995,1387.92 541.896,1389.16 539.805,1390.57C537.725,1392 535.608,1393.59 533.593,1395.39C529.541,1398.98 525.494,1403.31 521.758,1408.44Z" style="fill:rgb(59,181,74);fill-rule:nonzero;"/>
                        </g>
                        <g transform="matrix(0.467081,0.507002,-0.468578,0.431683,692.396046,-748.154949)">
                            <path d="M460.59,1509.16C462.297,1512.26 463.909,1515.46 465.426,1518.74C466.991,1522.03 468.484,1525.4 469.872,1528.84C471.232,1532.29 472.632,1535.81 473.892,1539.39C474.526,1541.18 475.136,1542.99 475.724,1544.81C476.327,1546.63 476.938,1548.46 477.508,1550.31C482.068,1565.1 485.597,1580.7 488.167,1596.5C479.726,1597.42 470.892,1595.38 462.098,1590.02C460.999,1589.35 459.9,1588.63 458.803,1587.85C457.715,1587.08 456.642,1586.25 455.565,1585.36C453.415,1583.6 451.278,1581.62 449.162,1579.42C448.104,1578.33 447.05,1577.17 446.004,1575.97C444.958,1574.76 443.957,1573.5 442.944,1572.18C440.926,1569.54 438.94,1566.68 436.995,1563.6C429.337,1551.26 423.318,1536.42 419.371,1520.23C418.42,1516.19 417.568,1512.06 416.817,1507.87C416.092,1503.68 415.545,1499.42 415.058,1495.12C414.143,1486.54 413.772,1477.81 413.934,1469.06C422.414,1469.69 430.761,1473.54 438.578,1480.31C442.53,1483.69 446.337,1487.8 449.982,1492.62C451.837,1495.03 453.648,1497.61 455.409,1500.37C457.169,1503.13 458.86,1506.06 460.59,1509.16Z" style="fill:rgb(59,181,74);fill-rule:nonzero;"/>
                        </g>
                        <g transform="matrix(0.467081,0.507002,-0.468578,0.431683,692.396046,-748.154949)">
                            <path d="M517.883,1507.8C516.348,1510.73 514.913,1513.78 513.578,1516.95C512.292,1520.11 511.13,1523.39 510.059,1526.77C508.961,1530.14 508.1,1533.61 507.294,1537.15C506.896,1538.93 506.522,1540.72 506.175,1542.53C505.845,1544.34 505.57,1546.17 505.305,1548.01C503.177,1562.75 503.175,1578.46 505.325,1593.92C513.671,1592.32 521.586,1587.88 528.642,1580.96C535.728,1574.04 542.063,1564.64 547.415,1552.99C552.835,1541.32 556.803,1528.47 559.622,1515.05C560.363,1511.69 561.001,1508.3 561.538,1504.88C562.101,1501.46 562.64,1498.02 563.034,1494.55C563.881,1487.61 564.46,1480.56 564.756,1473.52C556.27,1473.57 547.727,1476.26 539.647,1481.89C535.65,1484.7 531.758,1488.25 528.067,1492.57C526.255,1494.72 524.49,1497.07 522.78,1499.61C521.07,1502.14 519.396,1504.88 517.883,1507.8Z" style="fill:rgb(59,181,74);fill-rule:nonzero;"/>
                        </g>
                        <g transform="matrix(0.467081,0.507002,-0.468578,0.431683,692.396046,-748.154949)">
                            <path d="M470.82,1621.14C479.803,1632.83 487.752,1646.32 494.91,1660.78C502.038,1675.25 508.274,1690.72 513.55,1706.54C509.285,1707.72 504.792,1708.16 500.115,1707.79C495.449,1707.42 490.55,1706.26 485.637,1704.21C483.169,1703.19 480.671,1701.95 478.15,1700.49C476.89,1699.76 475.624,1698.98 474.352,1698.14C473.717,1697.72 473.079,1697.28 472.443,1696.83C471.815,1696.38 471.187,1695.92 470.557,1695.44C468.039,1693.52 465.508,1691.37 462.972,1688.98C461.71,1687.79 460.418,1686.55 459.179,1685.23C457.936,1683.92 456.693,1682.54 455.451,1681.11C454.21,1679.67 452.984,1678.19 451.775,1676.67C451.17,1675.92 450.569,1675.15 449.973,1674.37C449.381,1673.59 448.812,1672.79 448.237,1671.99C445.946,1668.78 443.726,1665.41 441.58,1661.9C439.486,1658.38 437.492,1654.72 435.567,1650.94C435.09,1650 434.604,1649.05 434.149,1648.08C433.696,1647.12 433.248,1646.15 432.806,1645.17C431.921,1643.22 431.058,1641.24 430.216,1639.23C423.54,1623.16 418.8,1605.37 416.354,1587.21C420.766,1586.86 425.272,1587.36 429.809,1588.65C432.082,1589.3 434.343,1590.15 436.639,1591.2C438.937,1592.24 441.237,1593.48 443.533,1594.91C445.828,1596.35 448.118,1597.97 450.395,1599.79C451.537,1600.7 452.661,1601.66 453.807,1602.66C454.958,1603.66 456.105,1604.71 457.248,1605.8C459.534,1607.99 461.802,1610.36 464.044,1612.92C465.154,1614.21 466.307,1615.53 467.439,1616.9C468.573,1618.27 469.7,1619.68 470.82,1621.14Z" style="fill:rgb(59,181,74);fill-rule:nonzero;"/>
                        </g>
                        <g transform="matrix(0.467081,0.507002,-0.468578,0.431683,692.396046,-748.154949)">
                            <path d="M529.56,1610.49C525.073,1623.51 522.86,1638.37 523.128,1653.86C523.362,1669.36 525.979,1685.5 530.762,1701.03C534.918,1699.51 538.84,1697.28 542.481,1694.4C546.132,1691.52 549.453,1688 552.563,1683.85C554.108,1681.78 555.573,1679.56 556.953,1677.19C557.642,1676.01 558.311,1674.79 558.957,1673.54C559.28,1672.91 559.596,1672.27 559.91,1671.63C560.232,1670.98 560.548,1670.33 560.859,1669.66C562.104,1667 563.258,1664.2 564.316,1661.27C564.852,1659.8 565.334,1658.31 565.844,1656.77C566.35,1655.23 566.832,1653.65 567.289,1652.05C567.745,1650.44 568.171,1648.82 568.567,1647.19C568.765,1646.37 568.955,1645.55 569.138,1644.73C569.326,1643.91 569.514,1643.08 569.704,1642.24C570.435,1638.92 571.048,1635.54 571.544,1632.13C572.092,1628.7 572.547,1625.24 572.875,1621.75C573.032,1620 573.188,1618.25 573.347,1616.48C573.49,1614.72 573.605,1612.95 573.693,1611.17C574.45,1596.95 573.937,1582.33 572.33,1567.83C567.961,1568.53 563.684,1569.9 559.562,1571.99C557.506,1573.03 555.469,1574.25 553.515,1575.65C551.563,1577.05 549.662,1578.63 547.819,1580.39C545.977,1582.15 544.193,1584.1 542.476,1586.24C541.621,1587.3 540.769,1588.42 539.959,1589.58C539.156,1590.74 538.371,1591.94 537.605,1593.2C536.074,1595.7 534.621,1598.4 533.255,1601.28C532.56,1602.73 531.938,1604.21 531.324,1605.75C530.712,1607.28 530.124,1608.86 529.56,1610.49Z" style="fill:rgb(59,181,74);fill-rule:nonzero;"/>
                        </g>
                        <g transform="matrix(0.467081,0.507002,-0.468578,0.431683,692.396046,-748.154949)">
                            <path d="M499.82,1734.82C510.978,1745.37 521.557,1757.87 531.355,1771.53C541.162,1785.2 550.254,1800.02 558.46,1815.35C554.288,1817.3 549.75,1818.54 544.881,1818.98C540.012,1819.43 534.798,1819.08 529.383,1817.83C526.667,1817.21 523.88,1816.37 521.031,1815.3C519.606,1814.77 518.166,1814.18 516.709,1813.54C515.257,1812.89 513.818,1812.17 512.351,1811.4C509.422,1809.86 506.439,1808.09 503.41,1806.07C501.885,1805.06 500.383,1803.98 498.876,1802.84C497.365,1801.7 495.844,1800.5 494.314,1799.23C482.092,1789.11 470.734,1775.78 461.129,1760.3C451.525,1744.83 443.648,1727.24 438.105,1708.89C447.067,1706.71 457.006,1707.93 467.337,1712.34C472.544,1714.54 477.896,1717.52 483.273,1721.29C485.971,1723.17 488.746,1725.23 491.492,1727.49C494.251,1729.74 496.981,1732.21 499.82,1734.82Z" style="fill:rgb(59,181,74);fill-rule:nonzero;"/>
                        </g>
                        <g transform="matrix(0.467081,0.507002,-0.468578,0.431683,692.396046,-748.154949)">
                            <path d="M558.413,1713.99C555.929,1728.13 556.278,1743.71 559.161,1759.58C562.044,1775.45 567.527,1791.57 575.161,1806.66C579.162,1804.37 582.796,1801.39 586.029,1797.8C589.262,1794.21 592.079,1790.01 594.546,1785.21C595.771,1782.82 596.888,1780.29 597.892,1777.63C598.395,1776.3 598.869,1774.93 599.314,1773.54C599.762,1772.14 600.21,1770.7 600.615,1769.23C601.43,1766.29 602.13,1763.23 602.708,1760.05C602.988,1758.47 603.271,1756.83 603.528,1755.17C603.781,1753.51 604.004,1751.82 604.195,1750.1C605.742,1736.34 605.458,1721.88 603.865,1707.22C602.274,1692.56 599.335,1677.71 595.306,1663.13C586.556,1666.02 578.647,1671.6 572.164,1680.08C568.963,1684.3 566.165,1689.24 563.789,1694.91C562.612,1697.74 561.61,1700.73 560.696,1703.92C559.796,1707.1 558.983,1710.47 558.413,1713.99Z" style="fill:rgb(59,181,74);fill-rule:nonzero;"/>
                        </g>
                        <g transform="matrix(0.467081,0.507002,-0.468578,0.431683,692.396046,-748.154949)">
                            <path d="M631.283,1920.08C597.713,1876.857 569.374,1829.606 547.249,1779.66C524.291,1727.96 507.644,1673.51 497.907,1617.9C488.126,1562.29 485.073,1505.54 488.983,1449.32C490.908,1421.21 494.512,1393.22 499.804,1365.56C505.127,1337.92 512.135,1310.61 520.789,1283.84C512.543,1310.74 505.959,1338.12 501.065,1365.8C496.203,1393.48 493.036,1421.44 491.544,1449.47C488.5,1505.55 492.407,1561.92 502.953,1616.97C513.456,1672.02 530.782,1725.71 554.256,1776.48C560.148,1789.16 566.396,1801.67 573.029,1813.97C579.703,1826.25 586.738,1838.33 594.125,1850.19L599.73,1859.04L605.5,1867.78C606.45,1869.24 607.445,1870.68 608.436,1872.11L611.405,1876.42C612.4,1877.86 613.372,1879.31 614.386,1880.73L617.445,1884.98L620.502,1889.23C621.524,1890.64 622.528,1892.07 623.592,1893.46L629.89,1901.82C630.417,1902.51 630.935,1903.22 631.47,1903.91L633.09,1905.96L636.33,1910.07L639.378,1913.939L631.283,1920.08Z" style="fill:rgb(59,181,74);"/>
                        </g>
                        <g transform="matrix(0.467081,0.507002,-0.468578,0.431683,692.396046,-748.154949)">
                            <path d="M525.395,1217.78C518.753,1233.55 514.677,1249.51 512.932,1264.55C511.169,1279.59 511.779,1293.71 514.323,1305.99C522.831,1296.78 530.98,1285.72 538.604,1273.29C546.217,1260.86 553.256,1247.04 559.543,1232.11C565.818,1217.17 570.734,1202.46 574.28,1188.32C577.817,1174.18 579.989,1160.61 580.578,1148.07C570.059,1154.87 559.567,1164.33 550.057,1176.12C540.546,1187.9 532.022,1202 525.395,1217.78Z" style="fill:rgb(59,181,74);fill-rule:nonzero;"/>
                        </g>
                    </g>
                    <g transform="matrix(-0.997234,-0.074325,-0.074325,0.997234,1116.824492,33.604308)">
                        <g transform="matrix(0.467081,0.507002,-0.468578,0.431683,692.396046,-748.154949)">
                            <path d="M488.446,1300.47C491.138,1313.19 492.305,1326.97 492.337,1341.21C492.372,1355.45 491.278,1370.15 489.212,1384.74C481.53,1383.23 474.303,1379.02 468.009,1371.92C464.906,1368.37 462.051,1364.11 459.5,1359.11C458.23,1356.61 457.088,1353.94 456.006,1351.07C454.939,1348.21 453.916,1345.16 453.086,1341.95C452.236,1338.73 451.503,1335.4 450.885,1331.97C450.307,1328.55 449.856,1325.05 449.512,1321.46C449.427,1320.56 449.347,1319.66 449.277,1318.76C449.218,1317.85 449.167,1316.94 449.122,1316.03C449.032,1314.21 448.971,1312.37 448.937,1310.51C448.911,1308.65 448.88,1306.77 448.936,1304.9C448.983,1303.02 449.059,1301.12 449.161,1299.22C449.984,1283.99 452.953,1268.15 457.834,1252.86C465.162,1255.65 471.471,1261.22 476.654,1269.26C479.235,1273.28 481.478,1277.89 483.479,1283.11C484.467,1285.72 485.369,1288.47 486.178,1291.36C487.025,1294.25 487.784,1297.29 488.446,1300.47Z" style="fill:rgb(59,181,74);fill-rule:nonzero;"/>
                        </g>
                        <g transform="matrix(0.467081,0.507002,-0.468578,0.431683,692.396046,-748.154949)">
                            <path d="M539.36,1314.52C530.774,1323.23 523.31,1334.24 517.453,1346.68C511.599,1359.11 507.366,1372.96 505.017,1387.17C512.797,1388.04 520.969,1386.3 529.055,1382.12C533.142,1380.04 537.222,1377.34 541.228,1374.06C543.238,1372.42 545.28,1370.64 547.274,1368.71C549.282,1366.78 551.225,1364.69 553.235,1362.48C555.226,1360.26 557.143,1357.95 558.984,1355.55C560.865,1353.16 562.684,1350.69 564.418,1348.14C565.274,1346.86 566.136,1345.57 567.003,1344.27C567.858,1342.96 568.693,1341.64 569.508,1340.3C570.332,1338.96 571.102,1337.6 571.912,1336.23C572.714,1334.86 573.497,1333.48 574.259,1332.08C580.367,1320.91 585.591,1308.89 589.861,1296.52C582.355,1294.34 574.045,1294.46 565.479,1297.33C561.187,1298.77 556.772,1300.87 552.424,1303.73C550.238,1305.16 548.042,1306.76 545.842,1308.56C543.68,1310.36 541.518,1312.34 539.36,1314.52Z" style="fill:rgb(59,181,74);fill-rule:nonzero;"/>
                        </g>
                        <g transform="matrix(0.467081,0.507002,-0.468578,0.431683,692.396046,-748.154949)">
                            <path d="M467.167,1401.6C471.838,1414.32 475.1,1428.36 477.323,1443.03C479.524,1457.71 480.623,1473.03 480.724,1488.38C472.588,1488 464.459,1484.77 456.923,1478.4C453.187,1475.22 449.568,1471.26 446.192,1466.49C444.528,1464.11 442.918,1461.52 441.368,1458.73C440.594,1457.34 439.832,1455.89 439.092,1454.4C438.372,1452.9 437.668,1451.35 436.982,1449.76C436.296,1448.16 435.636,1446.53 435.002,1444.87C434.369,1443.21 433.751,1441.51 433.205,1439.79C432.092,1436.36 431.083,1432.8 430.179,1429.15C429.317,1425.5 428.581,1421.75 427.938,1417.93C427.606,1416.01 427.353,1414.08 427.112,1412.13C426.873,1410.18 426.66,1408.21 426.474,1406.23C425.04,1390.38 425.737,1373.55 428.509,1357.02C432.489,1357.91 436.327,1359.57 439.976,1361.94C441.801,1363.12 443.578,1364.48 445.301,1366.02C446.163,1366.79 447.011,1367.6 447.845,1368.45C448.689,1369.31 449.521,1370.21 450.338,1371.15C451.972,1373.03 453.549,1375.08 455.063,1377.3C456.587,1379.51 458.003,1381.88 459.436,1384.43C462.28,1389.52 464.791,1395.24 467.167,1401.6Z" style="fill:rgb(59,181,74);fill-rule:nonzero;"/>
                        </g>
                        <g transform="matrix(0.467081,0.507002,-0.468578,0.431683,692.396046,-748.154949)">
                            <path d="M521.758,1408.44C514.205,1418.7 508.154,1431.17 504.037,1444.87C499.896,1458.56 497.629,1473.47 497.38,1488.47C505.541,1488.18 513.655,1485.14 521.383,1479.6C525.278,1476.83 529.045,1473.44 532.688,1469.45C534.534,1467.46 536.341,1465.31 538.101,1463.02C538.982,1461.88 539.849,1460.69 540.708,1459.48C541.586,1458.26 542.453,1457 543.307,1455.71C544.161,1454.42 544.992,1453.11 545.8,1451.77C546.609,1450.44 547.385,1449.09 548.184,1447.72C549.76,1444.98 551.245,1442.16 552.639,1439.27C554.075,1436.39 555.44,1433.45 556.703,1430.45C557.323,1428.94 557.973,1427.43 558.586,1425.91C559.201,1424.38 559.793,1422.84 560.363,1421.29C564.976,1408.89 568.558,1395.76 571.116,1382.43C567.08,1381.86 562.941,1381.91 558.749,1382.63C556.652,1383 554.543,1383.53 552.426,1384.23C551.368,1384.58 550.308,1384.97 549.247,1385.41C548.196,1385.85 547.146,1386.33 546.095,1386.86C543.995,1387.92 541.896,1389.16 539.805,1390.57C537.725,1392 535.608,1393.59 533.593,1395.39C529.541,1398.98 525.494,1403.31 521.758,1408.44Z" style="fill:rgb(59,181,74);fill-rule:nonzero;"/>
                        </g>
                        <g transform="matrix(0.467081,0.507002,-0.468578,0.431683,692.396046,-748.154949)">
                            <path d="M460.59,1509.16C462.297,1512.26 463.909,1515.46 465.426,1518.74C466.991,1522.03 468.484,1525.4 469.872,1528.84C471.232,1532.29 472.632,1535.81 473.892,1539.39C474.526,1541.18 475.136,1542.99 475.724,1544.81C476.327,1546.63 476.938,1548.46 477.508,1550.31C482.068,1565.1 485.597,1580.7 488.167,1596.5C479.726,1597.42 470.892,1595.38 462.098,1590.02C460.999,1589.35 459.9,1588.63 458.803,1587.85C457.715,1587.08 456.642,1586.25 455.565,1585.36C453.415,1583.6 451.278,1581.62 449.162,1579.42C448.104,1578.33 447.05,1577.17 446.004,1575.97C444.958,1574.76 443.957,1573.5 442.944,1572.18C440.926,1569.54 438.94,1566.68 436.995,1563.6C429.337,1551.26 423.318,1536.42 419.371,1520.23C418.42,1516.19 417.568,1512.06 416.817,1507.87C416.092,1503.68 415.545,1499.42 415.058,1495.12C414.143,1486.54 413.772,1477.81 413.934,1469.06C422.414,1469.69 430.761,1473.54 438.578,1480.31C442.53,1483.69 446.337,1487.8 449.982,1492.62C451.837,1495.03 453.648,1497.61 455.409,1500.37C457.169,1503.13 458.86,1506.06 460.59,1509.16Z" style="fill:rgb(59,181,74);fill-rule:nonzero;"/>
                        </g>
                        <g transform="matrix(0.467081,0.507002,-0.468578,0.431683,692.396046,-748.154949)">
                            <path d="M517.883,1507.8C516.348,1510.73 514.913,1513.78 513.578,1516.95C512.292,1520.11 511.13,1523.39 510.059,1526.77C508.961,1530.14 508.1,1533.61 507.294,1537.15C506.896,1538.93 506.522,1540.72 506.175,1542.53C505.845,1544.34 505.57,1546.17 505.305,1548.01C503.177,1562.75 503.175,1578.46 505.325,1593.92C513.671,1592.32 521.586,1587.88 528.642,1580.96C535.728,1574.04 542.063,1564.64 547.415,1552.99C552.835,1541.32 556.803,1528.47 559.622,1515.05C560.363,1511.69 561.001,1508.3 561.538,1504.88C562.101,1501.46 562.64,1498.02 563.034,1494.55C563.881,1487.61 564.46,1480.56 564.756,1473.52C556.27,1473.57 547.727,1476.26 539.647,1481.89C535.65,1484.7 531.758,1488.25 528.067,1492.57C526.255,1494.72 524.49,1497.07 522.78,1499.61C521.07,1502.14 519.396,1504.88 517.883,1507.8Z" style="fill:rgb(59,181,74);fill-rule:nonzero;"/>
                        </g>
                        <g transform="matrix(0.467081,0.507002,-0.468578,0.431683,692.396046,-748.154949)">
                            <path d="M470.82,1621.14C479.803,1632.83 487.752,1646.32 494.91,1660.78C502.038,1675.25 508.274,1690.72 513.55,1706.54C509.285,1707.72 504.792,1708.16 500.115,1707.79C495.449,1707.42 490.55,1706.26 485.637,1704.21C483.169,1703.19 480.671,1701.95 478.15,1700.49C476.89,1699.76 475.624,1698.98 474.352,1698.14C473.717,1697.72 473.079,1697.28 472.443,1696.83C471.815,1696.38 471.187,1695.92 470.557,1695.44C468.039,1693.52 465.508,1691.37 462.972,1688.98C461.71,1687.79 460.418,1686.55 459.179,1685.23C457.936,1683.92 456.693,1682.54 455.451,1681.11C454.21,1679.67 452.984,1678.19 451.775,1676.67C451.17,1675.92 450.569,1675.15 449.973,1674.37C449.381,1673.59 448.812,1672.79 448.237,1671.99C445.946,1668.78 443.726,1665.41 441.58,1661.9C439.486,1658.38 437.492,1654.72 435.567,1650.94C435.09,1650 434.604,1649.05 434.149,1648.08C433.696,1647.12 433.248,1646.15 432.806,1645.17C431.921,1643.22 431.058,1641.24 430.216,1639.23C423.54,1623.16 418.8,1605.37 416.354,1587.21C420.766,1586.86 425.272,1587.36 429.809,1588.65C432.082,1589.3 434.343,1590.15 436.639,1591.2C438.937,1592.24 441.237,1593.48 443.533,1594.91C445.828,1596.35 448.118,1597.97 450.395,1599.79C451.537,1600.7 452.661,1601.66 453.807,1602.66C454.958,1603.66 456.105,1604.71 457.248,1605.8C459.534,1607.99 461.802,1610.36 464.044,1612.92C465.154,1614.21 466.307,1615.53 467.439,1616.9C468.573,1618.27 469.7,1619.68 470.82,1621.14Z" style="fill:rgb(59,181,74);fill-rule:nonzero;"/>
                        </g>
                        <g transform="matrix(0.467081,0.507002,-0.468578,0.431683,692.396046,-748.154949)">
                            <path d="M529.56,1610.49C525.073,1623.51 522.86,1638.37 523.128,1653.86C523.362,1669.36 525.979,1685.5 530.762,1701.03C534.918,1699.51 538.84,1697.28 542.481,1694.4C546.132,1691.52 549.453,1688 552.563,1683.85C554.108,1681.78 555.573,1679.56 556.953,1677.19C557.642,1676.01 558.311,1674.79 558.957,1673.54C559.28,1672.91 559.596,1672.27 559.91,1671.63C560.232,1670.98 560.548,1670.33 560.859,1669.66C562.104,1667 563.258,1664.2 564.316,1661.27C564.852,1659.8 565.334,1658.31 565.844,1656.77C566.35,1655.23 566.832,1653.65 567.289,1652.05C567.745,1650.44 568.171,1648.82 568.567,1647.19C568.765,1646.37 568.955,1645.55 569.138,1644.73C569.326,1643.91 569.514,1643.08 569.704,1642.24C570.435,1638.92 571.048,1635.54 571.544,1632.13C572.092,1628.7 572.547,1625.24 572.875,1621.75C573.032,1620 573.188,1618.25 573.347,1616.48C573.49,1614.72 573.605,1612.95 573.693,1611.17C574.45,1596.95 573.937,1582.33 572.33,1567.83C567.961,1568.53 563.684,1569.9 559.562,1571.99C557.506,1573.03 555.469,1574.25 553.515,1575.65C551.563,1577.05 549.662,1578.63 547.819,1580.39C545.977,1582.15 544.193,1584.1 542.476,1586.24C541.621,1587.3 540.769,1588.42 539.959,1589.58C539.156,1590.74 538.371,1591.94 537.605,1593.2C536.074,1595.7 534.621,1598.4 533.255,1601.28C532.56,1602.73 531.938,1604.21 531.324,1605.75C530.712,1607.28 530.124,1608.86 529.56,1610.49Z" style="fill:rgb(59,181,74);fill-rule:nonzero;"/>
                        </g>
                        <g transform="matrix(0.467081,0.507002,-0.468578,0.431683,692.396046,-748.154949)">
                            <path d="M499.82,1734.82C510.978,1745.37 521.557,1757.87 531.355,1771.53C541.162,1785.2 550.254,1800.02 558.46,1815.35C554.288,1817.3 549.75,1818.54 544.881,1818.98C540.012,1819.43 534.798,1819.08 529.383,1817.83C526.667,1817.21 523.88,1816.37 521.031,1815.3C519.606,1814.77 518.166,1814.18 516.709,1813.54C515.257,1812.89 513.818,1812.17 512.351,1811.4C509.422,1809.86 506.439,1808.09 503.41,1806.07C501.885,1805.06 500.383,1803.98 498.876,1802.84C497.365,1801.7 495.844,1800.5 494.314,1799.23C482.092,1789.11 470.734,1775.78 461.129,1760.3C451.525,1744.83 443.648,1727.24 438.105,1708.89C447.067,1706.71 457.006,1707.93 467.337,1712.34C472.544,1714.54 477.896,1717.52 483.273,1721.29C485.971,1723.17 488.746,1725.23 491.492,1727.49C494.251,1729.74 496.981,1732.21 499.82,1734.82Z" style="fill:rgb(59,181,74);fill-rule:nonzero;"/>
                        </g>
                        <g transform="matrix(0.467081,0.507002,-0.468578,0.431683,692.396046,-748.154949)">
                            <path d="M558.413,1713.99C555.929,1728.13 556.278,1743.71 559.161,1759.58C562.044,1775.45 567.527,1791.57 575.161,1806.66C579.162,1804.37 582.796,1801.39 586.029,1797.8C589.262,1794.21 592.079,1790.01 594.546,1785.21C595.771,1782.82 596.888,1780.29 597.892,1777.63C598.395,1776.3 598.869,1774.93 599.314,1773.54C599.762,1772.14 600.21,1770.7 600.615,1769.23C601.43,1766.29 602.13,1763.23 602.708,1760.05C602.988,1758.47 603.271,1756.83 603.528,1755.17C603.781,1753.51 604.004,1751.82 604.195,1750.1C605.742,1736.34 605.458,1721.88 603.865,1707.22C602.274,1692.56 599.335,1677.71 595.306,1663.13C586.556,1666.02 578.647,1671.6 572.164,1680.08C568.963,1684.3 566.165,1689.24 563.789,1694.91C562.612,1697.74 561.61,1700.73 560.696,1703.92C559.796,1707.1 558.983,1710.47 558.413,1713.99Z" style="fill:rgb(59,181,74);fill-rule:nonzero;"/>
                        </g>
                        <g transform="matrix(0.467081,0.507002,-0.468578,0.431683,692.396046,-748.154949)">
                            <path d="M631.283,1920.08C597.713,1876.857 569.374,1829.606 547.249,1779.66C524.291,1727.96 507.644,1673.51 497.907,1617.9C488.126,1562.29 485.073,1505.54 488.983,1449.32C490.908,1421.21 494.512,1393.22 499.804,1365.56C505.127,1337.92 512.135,1310.61 520.789,1283.84C512.543,1310.74 505.959,1338.12 501.065,1365.8C496.203,1393.48 493.036,1421.44 491.544,1449.47C488.5,1505.55 492.407,1561.92 502.953,1616.97C513.456,1672.02 530.782,1725.71 554.256,1776.48C560.148,1789.16 566.396,1801.67 573.029,1813.97C579.703,1826.25 586.738,1838.33 594.125,1850.19L599.73,1859.04L605.5,1867.78C606.45,1869.24 607.445,1870.68 608.436,1872.11L611.405,1876.42C612.4,1877.86 613.372,1879.31 614.386,1880.73L617.445,1884.98L620.502,1889.23C621.524,1890.64 622.528,1892.07 623.592,1893.46L629.89,1901.82C630.417,1902.51 630.935,1903.22 631.47,1903.91L633.09,1905.96L636.33,1910.07L639.378,1913.939L631.283,1920.08Z" style="fill:rgb(59,181,74);"/>
                        </g>
                        <g transform="matrix(0.467081,0.507002,-0.468578,0.431683,692.396046,-748.154949)">
                            <path d="M525.395,1217.78C518.753,1233.55 514.677,1249.51 512.932,1264.55C511.169,1279.59 511.779,1293.71 514.323,1305.99C522.831,1296.78 530.98,1285.72 538.604,1273.29C546.217,1260.86 553.256,1247.04 559.543,1232.11C565.818,1217.17 570.734,1202.46 574.28,1188.32C577.817,1174.18 579.989,1160.61 580.578,1148.07C570.059,1154.87 559.567,1164.33 550.057,1176.12C540.546,1187.9 532.022,1202 525.395,1217.78Z" style="fill:rgb(59,181,74);fill-rule:nonzero;"/>
                        </g>
                    </g>
                    <g>
                        <g transform="matrix(1.948141,-0,0,1.985048,-671.002169,-549.867582)">
                            <path d="M568.438,255.813C585.309,252.472 602.748,250.721 620.593,250.721C638.438,250.721 655.877,252.472 672.747,255.813L568.438,255.813ZM877.843,442.675C882.638,462.702 888.049,496.688 888.049,518.177C888.049,539.635 885.516,560.506 880.734,580.507C879.972,583.696 873.156,586.863 872.28,590.006C841.597,700.158 740.471,781.08 620.593,781.08C500.715,781.08 399.588,700.158 368.905,590.006C368.052,586.944 361.256,583.86 360.511,580.755C355.69,560.678 353.137,539.723 353.137,518.177C353.137,506.052 354.331,487.551 356.732,472.216C358.586,460.372 360.193,451.382 362.283,442.654L386.139,473.079L420.907,453.032C414.156,473.202 411.254,497.474 411.254,519.848C411.254,544.483 415.682,568.11 423.798,590.006C453.039,668.892 530.157,725.294 620.593,725.294C711.028,725.294 788.147,668.892 817.387,590.006C825.503,568.11 829.931,544.483 829.931,519.848C829.931,497.474 826.279,473.188 819.528,453.018L854.13,473.07L877.843,442.675Z" style="fill:rgb(0,58,120);"/>
                        </g>
                        <g transform="matrix(1.912373,-0,0,1.948602,-648.804742,-530.921341)">
                            <path d="M880.006,450.928C884.993,471.322 887.904,496.264 887.904,518.185C887.904,539.344 885.44,559.932 880.784,579.678C879.861,583.592 873.117,587.473 872.024,591.318L871.911,591.318C840.793,700.8 739.994,781.08 620.593,781.08C501.191,781.08 400.392,700.8 369.274,591.318L369.209,591.318C368.322,588.2 361.709,585.058 360.934,581.894C355.934,561.474 353.282,540.137 353.282,518.185C353.282,496.264 355.273,471.322 360.26,450.928L381.315,477.538L409.533,460.444C402.813,481.03 402.481,497.085 402.481,519.848C402.481,544.906 406.878,568.963 414.955,591.318C444.958,674.361 525.746,733.904 620.593,733.904C715.439,733.904 796.227,674.361 826.231,591.318C834.307,568.963 838.704,544.906 838.704,519.848C838.704,497.085 836.937,481.053 830.217,460.467L860.457,477.452L880.006,450.928Z" style="fill:white;"/>
                        </g>
                    </g>
                    <g>
                        <g transform="matrix(1.447153,-0,0,1.474568,-360.092351,-284.495737)">
                            <path d="M620.593,258.616C764.771,258.616 881.825,375.67 881.825,519.848C881.825,664.026 764.771,781.08 620.593,781.08C476.415,781.08 359.361,664.026 359.361,519.848C359.361,375.67 476.415,258.616 620.593,258.616ZM620.593,328.021C515.263,328.021 429.748,413.536 429.748,518.866C429.748,624.196 515.263,709.71 620.593,709.71C725.923,709.71 811.437,624.196 811.437,518.866C811.437,413.536 725.923,328.021 620.593,328.021Z" style="fill:rgb(0,58,120);"/>
                        </g>
                        <g transform="matrix(1.394049,-0,0,1.420459,-327.136686,-256.366984)">
                            <path d="M620.593,258.616C764.771,258.616 881.825,375.67 881.825,519.848C881.825,664.026 764.771,781.08 620.593,781.08C476.415,781.08 359.361,664.026 359.361,519.848C359.361,375.67 476.415,258.616 620.593,258.616ZM620.593,320.714C511.25,320.714 422.478,409.486 422.478,518.828C422.478,628.171 511.25,716.943 620.593,716.943C729.935,716.943 818.707,628.171 818.707,518.828C818.707,409.486 729.935,320.714 620.593,320.714Z" style="fill:white;"/>
                        </g>
                        <g transform="matrix(1.108266,0,0,1.129261,-149.781581,-106.437104)">
                            <path d="M620.593,258.616C764.771,258.616 881.825,375.67 881.825,519.848C881.825,664.026 764.771,781.08 620.593,781.08C476.415,781.08 359.361,664.026 359.361,519.848C359.361,375.67 476.415,258.616 620.593,258.616ZM620.593,270.647C483.055,270.647 371.392,382.31 371.392,519.848C371.392,657.386 483.055,769.049 620.593,769.049C758.131,769.049 869.794,657.386 869.794,519.848C869.794,382.31 758.131,270.647 620.593,270.647Z" style="fill:rgb(0,58,120);"/>
                        </g>
                    </g>
                    <g transform="matrix(0.841329,0.540523,-0.540523,0.841329,287.9828,-351.972822)">
                        <g transform="matrix(-0.882298,-0.470691,0.470691,-0.882298,615.097206,1846.877981)">
                            <text x="538.465px" y="846.533px" style="font-family:'RobotoCondensed-Bold', 'Roboto Condensed';font-weight:700;font-stretch:condensed;font-size:66.667px;fill:rgb(115,0,49);">R</text>
                        </g>
                        <g transform="matrix(-0.817566,-0.575834,0.575834,-0.817566,441.819407,1798.588226)">
                            <text x="505.821px" y="829.306px" style="font-family:'RobotoCondensed-Bold', 'Roboto Condensed';font-weight:700;font-stretch:condensed;font-size:66.667px;fill:rgb(115,0,49);">A</text>
                        </g>
                        <g transform="matrix(-0.745719,-0.666261,0.666261,-0.745719,289.344358,1722.727355)">
                            <text x="473.415px" y="806.149px" style="font-family:'RobotoCondensed-Bold', 'Roboto Condensed';font-weight:700;font-stretch:condensed;font-size:66.667px;fill:rgb(115,0,49);">J</text>
                        </g>
                        <g transform="matrix(-0.660682,-0.750666,0.750666,-0.660682,157.09891,1640.934155)">
                            <text x="449.419px" y="784.961px" style="font-family:'RobotoCondensed-Bold', 'Roboto Condensed';font-weight:700;font-stretch:condensed;font-size:66.667px;fill:rgb(115,0,49);">A</text>
                        </g>
                        <g transform="matrix(-0.558926,-0.829218,0.829218,-0.558926,33.490193,1527.888976)">
                            <text x="423.099px" y="755.038px" style="font-family:'RobotoCondensed-Bold', 'Roboto Condensed';font-weight:700;font-stretch:condensed;font-size:66.667px;fill:rgb(115,0,49);">R</text>
                        </g>
                        <g transform="matrix(-0.455024,-0.890479,0.890479,-0.455024,-59.770444,1412.299679)">
                            <text x="402.281px" y="724.44px" style="font-family:'RobotoCondensed-Bold', 'Roboto Condensed';font-weight:700;font-stretch:condensed;font-size:66.667px;fill:rgb(115,0,49);">A</text>
                        </g>
                        <g transform="matrix(-0.351233,-0.936288,0.936288,-0.351233,-125.591569,1290.869388)">
                            <text x="384.435px" y="688.947px" style="font-family:'RobotoCondensed-Bold', 'Roboto Condensed';font-weight:700;font-stretch:condensed;font-size:66.667px;fill:rgb(115,0,49);">J</text>
                        </g>
                        <g transform="matrix(-0.243192,-0.969978,0.969978,-0.243192,-174.88617,1180.115105)">
                            <text x="372.939px" y="658.283px" style="font-family:'RobotoCondensed-Bold', 'Roboto Condensed';font-weight:700;font-stretch:condensed;font-size:66.667px;fill:rgb(115,0,49);">E</text>
                        </g>
                        <g transform="matrix(-0.138139,-0.990413,0.990413,-0.138139,-205.288841,1074.422916)">
                            <text x="364.839px" y="626.533px" style="font-family:'RobotoCondensed-Bold', 'Roboto Condensed';font-weight:700;font-stretch:condensed;font-size:66.667px;fill:rgb(115,0,49);">S</text>
                        </g>
                        <g transform="matrix(-0.001556,-0.999999,0.999999,-0.001556,-230.902181,951.181082)">
                            <text x="359.4px" y="590.862px" style="font-family:'RobotoCondensed-Bold', 'Roboto Condensed';font-weight:700;font-stretch:condensed;font-size:66.667px;fill:rgb(115,0,49);">W</text>
                        </g>
                        <g transform="matrix(0.136223,-0.990678,0.990678,0.136223,-226.593268,824.580301)">
                            <text x="359.565px" y="542.232px" style="font-family:'RobotoCondensed-Bold', 'Roboto Condensed';font-weight:700;font-stretch:condensed;font-size:66.667px;fill:rgb(115,0,49);">A</text>
                        </g>
                        <g transform="matrix(0.261352,-0.965243,0.965243,0.261352,-215.64017,723.6562)">
                            <text x="365.006px" y="502.724px" style="font-family:'RobotoCondensed-Bold', 'Roboto Condensed';font-weight:700;font-stretch:condensed;font-size:66.667px;fill:rgb(115,0,49);">R</text>
                        </g>
                        <g transform="matrix(0.341982,-0.939706,0.939706,0.341982,-192.37436,659.827682)">
                            <text x="374.958px" y="467.277px" style="font-family:'RobotoCondensed-Bold', 'Roboto Condensed';font-weight:700;font-stretch:condensed;font-size:66.667px;fill:rgb(115,0,49);">I</text>
                        </g>
                        <g transform="matrix(0.471307,-0.881969,0.881969,0.471307,-179.984366,571.587579)">
                            <text x="386.771px" y="435.919px" style="font-family:'RobotoCondensed-Bold', 'Roboto Condensed';font-weight:700;font-stretch:condensed;font-size:66.667px;fill:rgb(115,0,49);">D</text>
                        </g>
                        <g transform="matrix(0.5706,-0.821228,0.821228,0.5706,-156.984807,505.181729)">
                            <text x="404.588px" y="402.708px" style="font-family:'RobotoCondensed-Bold', 'Roboto Condensed';font-weight:700;font-stretch:condensed;font-size:66.667px;fill:rgb(115,0,49);">E</text>
                        </g>
                        <g transform="matrix(0.661797,-0.749683,0.749683,0.661797,-138.544144,444.182976)">
                            <text x="423.03px" y="375.644px" style="font-family:'RobotoCondensed-Bold', 'Roboto Condensed';font-weight:700;font-stretch:condensed;font-size:66.667px;fill:rgb(115,0,49);">N</text>
                        </g>
                        <g transform="matrix(0.748697,-0.662912,0.662912,0.748697,-116.23048,384.891084)">
                            <text x="449.537px" y="345.748px" style="font-family:'RobotoCondensed-Bold', 'Roboto Condensed';font-weight:700;font-stretch:condensed;font-size:66.667px;fill:rgb(115,0,49);">T</text>
                        </g>
                        <g transform="matrix(0.818435,-0.5746,0.5746,0.818435,-100.222142,330.937737)">
                            <text x="473.548px" y="324.055px" style="font-family:'RobotoCondensed-Bold', 'Roboto Condensed';font-weight:700;font-stretch:condensed;font-size:66.667px;fill:rgb(115,0,49);">A</text>
                        </g>
                        <g transform="matrix(0.882478,-0.470353,0.470353,0.882478,-82.259258,273.492868)">
                            <text x="506.166px" y="301.358px" style="font-family:'RobotoCondensed-Bold', 'Roboto Condensed';font-weight:700;font-stretch:condensed;font-size:66.667px;fill:rgb(115,0,49);">L</text>
                        </g>
                        <g transform="matrix(0.948819,-0.31582,0.31582,0.948819,-60.316246,187.532039)">
                            <text x="548.44px" y="279.862px" style="font-family:'RobotoCondensed-Bold', 'Roboto Condensed';font-weight:700;font-stretch:condensed;font-size:66.667px;fill:rgb(115,0,49);">C</text>
                        </g>
                        <g transform="matrix(0.981962,-0.189079,0.189079,0.981962,-40.083237,115.345111)">
                            <text x="584.492px" y="267.752px" style="font-family:'RobotoCondensed-Bold', 'Roboto Condensed';font-weight:700;font-stretch:condensed;font-size:66.667px;fill:rgb(115,0,49);">O</text>
                        </g>
                        <g transform="matrix(0.997915,-0.064537,0.064537,0.997915,-15.500143,40.819978)">
                            <text x="624.099px" y="260.336px" style="font-family:'RobotoCondensed-Bold', 'Roboto Condensed';font-weight:700;font-stretch:condensed;font-size:66.667px;fill:rgb(115,0,49);">L</text>
                        </g>
                        <g transform="matrix(0.999135,0.041577,-0.041577,0.999135,11.301091,-27.046078)">
                            <text x="655.87px" y="258.169px" style="font-family:'RobotoCondensed-Bold', 'Roboto Condensed';font-weight:700;font-stretch:condensed;font-size:66.667px;fill:rgb(115,0,49);">L</text>
                        </g>
                        <g transform="matrix(0.988677,0.150057,-0.150057,0.988677,46.705981,-100.270963)">
                            <text x="687.789px" y="259.357px" style="font-family:'RobotoCondensed-Bold', 'Roboto Condensed';font-weight:700;font-stretch:condensed;font-size:66.667px;fill:rgb(115,0,49);">E</text>
                        </g>
                        <g transform="matrix(0.963957,0.266059,-0.266059,0.963957,96.211249,-182.122599)">
                            <text x="720.289px" y="264.038px" style="font-family:'RobotoCondensed-Bold', 'Roboto Condensed';font-weight:700;font-stretch:condensed;font-size:66.667px;fill:rgb(115,0,49);">G</text>
                        </g>
                        <g transform="matrix(0.923238,0.384228,-0.384228,0.923238,163.671307,-270.135092)">
                            <text x="757.912px" y="274.558px" style="font-family:'RobotoCondensed-Bold', 'Roboto Condensed';font-weight:700;font-stretch:condensed;font-size:66.667px;fill:rgb(115,0,49);">E</text>
                        </g>
                        <g transform="matrix(0.845297,0.534297,-0.534297,0.845297,281.068435,-382.995648)">
                            <text x="801.908px" y="293.863px" style="font-family:'RobotoCondensed-Bold', 'Roboto Condensed';font-weight:700;font-stretch:condensed;font-size:66.667px;fill:rgb(115,0,49);">&amp;</text>
                        </g>
                        <g transform="matrix(0.735942,0.677045,-0.677045,0.735942,442.876334,-487.912544)">
                            <text x="846.942px" y="323.811px" style="font-family:'RobotoCondensed-Bold', 'Roboto Condensed';font-weight:700;font-stretch:condensed;font-size:66.667px;fill:rgb(115,0,49);">H</text>
                        </g>
                        <g transform="matrix(0.640079,0.768309,-0.768309,0.640079,585.790888,-547.322389)">
                            <text x="877.069px" y="351.571px" style="font-family:'RobotoCondensed-Bold', 'Roboto Condensed';font-weight:700;font-stretch:condensed;font-size:66.667px;fill:rgb(115,0,49);">O</text>
                        </g>
                        <g transform="matrix(0.540565,0.841302,-0.841302,0.540565,736.608184,-583.690897)">
                            <text x="902.722px" y="382.581px" style="font-family:'RobotoCondensed-Bold', 'Roboto Condensed';font-weight:700;font-stretch:condensed;font-size:66.667px;fill:rgb(115,0,49);">S</text>
                        </g>
                        <g transform="matrix(0.433827,0.900996,-0.900996,0.433827,894.168905,-597.222602)">
                            <text x="922.289px" y="412.87px" style="font-family:'RobotoCondensed-Bold', 'Roboto Condensed';font-weight:700;font-stretch:condensed;font-size:66.667px;fill:rgb(115,0,49);">P</text>
                        </g>
                        <g transform="matrix(0.352653,0.935754,-0.935754,0.352653,1025.80574,-588.604711)">
                            <text x="938.323px" y="447.11px" style="font-family:'RobotoCondensed-Bold', 'Roboto Condensed';font-weight:700;font-stretch:condensed;font-size:66.667px;fill:rgb(115,0,49);">I</text>
                        </g>
                        <g transform="matrix(0.272042,0.962285,-0.962285,0.272042,1133.246714,-572.100858)">
                            <text x="944.753px" y="462.967px" style="font-family:'RobotoCondensed-Bold', 'Roboto Condensed';font-weight:700;font-stretch:condensed;font-size:66.667px;fill:rgb(115,0,49);">T</text>
                        </g>
                        <g transform="matrix(0.164494,0.986378,-0.986378,0.164494,1284.202074,-528.127069)">
                            <text x="953.848px" y="493.985px" style="font-family:'RobotoCondensed-Bold', 'Roboto Condensed';font-weight:700;font-stretch:condensed;font-size:66.667px;fill:rgb(115,0,49);">A</text>
                        </g>
                        <g transform="matrix(0.047426,0.998875,-0.998875,0.047426,1447.410443,-451.119647)">
                            <text x="960.229px" y="533.322px" style="font-family:'RobotoCondensed-Bold', 'Roboto Condensed';font-weight:700;font-stretch:condensed;font-size:66.667px;fill:rgb(115,0,49);">L</text>
                        </g>
                    </g>
                    <g transform="matrix(0.673363,0.739312,-0.739312,0.673363,511.285489,-386.84261)">
                        <g transform="matrix(0.906359,-0.422508,0.422508,0.906359,-304.523343,416.827242)">
                            <text x="788.102px" y="895.419px" style="font-family:'RobotoCondensed-Bold', 'Roboto Condensed';font-weight:700;font-stretch:condensed;font-size:66.667px;fill:rgb(115,0,49);">B</text>
                        </g>
                        <g transform="matrix(0.844891,-0.534939,0.534939,0.844891,-340.675161,578.614293)">
                            <text x="827.421px" y="876.765px" style="font-family:'RobotoCondensed-Bold', 'Roboto Condensed';font-weight:700;font-stretch:condensed;font-size:66.667px;fill:rgb(115,0,49);">A</text>
                        </g>
                        <g transform="matrix(0.76651,-0.642233,0.642233,0.76651,-344.799873,755.159286)">
                            <text x="866.162px" y="851.779px" style="font-family:'RobotoCondensed-Bold', 'Roboto Condensed';font-weight:700;font-stretch:condensed;font-size:66.667px;fill:rgb(115,0,49);">N</text>
                        </g>
                        <g transform="matrix(0.676162,-0.736753,0.736753,0.676162,-312.947853,930.433435)">
                            <text x="901.925px" y="821.205px" style="font-family:'RobotoCondensed-Bold', 'Roboto Condensed';font-weight:700;font-stretch:condensed;font-size:66.667px;fill:rgb(115,0,49);">G</text>
                        </g>
                        <g transform="matrix(0.584269,-0.81156,0.81156,0.584269,-252.113263,1083.775012)">
                            <text x="931.777px" y="787.966px" style="font-family:'RobotoCondensed-Bold', 'Roboto Condensed';font-weight:700;font-stretch:condensed;font-size:66.667px;fill:rgb(115,0,49);">L</text>
                        </g>
                        <g transform="matrix(0.494252,-0.869318,0.869318,0.494252,-178.760271,1212.044599)">
                            <text x="952.298px" y="759.656px" style="font-family:'RobotoCondensed-Bold', 'Roboto Condensed';font-weight:700;font-stretch:condensed;font-size:66.667px;fill:rgb(115,0,49);">O</text>
                        </g>
                        <g transform="matrix(0.378025,-0.925796,0.925796,0.378025,-59.435323,1349.794563)">
                            <text x="974.851px" y="719.131px" style="font-family:'RobotoCondensed-Bold', 'Roboto Condensed';font-weight:700;font-stretch:condensed;font-size:66.667px;fill:rgb(115,0,49);">R</text>
                        </g>
                        <g transform="matrix(0.272042,-0.962285,0.962285,0.272042,66.765622,1448.160612)">
                            <text x="990.542px" y="679.952px" style="font-family:'RobotoCondensed-Bold', 'Roboto Condensed';font-weight:700;font-stretch:condensed;font-size:66.667px;fill:rgb(115,0,49);">E</text>
                        </g>
                    </g>
                    <g transform="matrix(0.512781,0.858519,-0.858519,0.512781,741.241653,-593.446515)">
                        <g transform="matrix(0.913641,-0.406521,0.406521,0.913641,-395.704675,503.92448)">
                            <text x="988.224px" y="1183.324px" style="font-family:'RobotoCondensed-Bold', 'Roboto Condensed';font-weight:700;font-stretch:condensed;font-size:73.333px;fill:rgb(115,0,49);">H</text>
                        </g>
                        <g transform="matrix(0.87157,-0.490272,0.490272,0.87157,-437.283901,656.088688)">
                            <text x="1033.639px" y="1162.691px" style="font-family:'RobotoCondensed-Bold', 'Roboto Condensed';font-weight:700;font-stretch:condensed;font-size:73.333px;fill:rgb(115,0,49);">E</text>
                        </g>
                        <g transform="matrix(0.825857,-0.563879,0.563879,0.825857,-458.252776,801.805198)">
                            <text x="1069.008px" y="1142.821px" style="font-family:'RobotoCondensed-Bold', 'Roboto Condensed';font-weight:700;font-stretch:condensed;font-size:73.333px;fill:rgb(115,0,49);">A</text>
                        </g>
                        <g transform="matrix(0.771804,-0.635861,0.635861,0.771804,-456.040678,959.574171)">
                            <text x="1108.889px" y="1115.158px" style="font-family:'RobotoCondensed-Bold', 'Roboto Condensed';font-weight:700;font-stretch:condensed;font-size:73.333px;fill:rgb(115,0,49);">L</text>
                        </g>
                        <g transform="matrix(0.733746,-0.679423,0.679423,0.733746,-438.104361,1063.635007)">
                            <text x="1138.035px" y="1090.793px" style="font-family:'RobotoCondensed-Bold', 'Roboto Condensed';font-weight:700;font-stretch:condensed;font-size:73.333px;fill:rgb(115,0,49);">I</text>
                        </g>
                        <g transform="matrix(0.683349,-0.730091,0.730091,0.683349,-418.899689,1184.074463)">
                            <text x="1155.592px" y="1074.959px" style="font-family:'RobotoCondensed-Bold', 'Roboto Condensed';font-weight:700;font-stretch:condensed;font-size:73.333px;fill:rgb(115,0,49);">N</text>
                        </g>
                        <g transform="matrix(0.609629,-0.792687,0.792687,0.609629,-358.670821,1348.23669)">
                            <text x="1189.529px" y="1038.277px" style="font-family:'RobotoCondensed-Bold', 'Roboto Condensed';font-weight:700;font-stretch:condensed;font-size:73.333px;fill:rgb(115,0,49);">G</text>
                        </g>
                        <g transform="matrix(0.490281,-0.871565,0.871565,0.490281,-213.937028,1572.90179)">
                            <text x="1237.777px" y="969.355px" style="font-family:'RobotoCondensed-Bold', 'Roboto Condensed';font-weight:700;font-stretch:condensed;font-size:73.333px;fill:rgb(115,0,49);">I</text>
                        </g>
                        <g transform="matrix(0.432467,-0.90165,0.90165,0.432467,-146.840026,1665.183971)">
                            <text x="1249.334px" y="949.236px" style="font-family:'RobotoCondensed-Bold', 'Roboto Condensed';font-weight:700;font-stretch:condensed;font-size:73.333px;fill:rgb(115,0,49);">S</text>
                        </g>
                        <g transform="matrix(0.27843,-0.960457,0.960457,0.27843,85.420885,1861.616361)">
                            <text x="1281.676px" y="873.958px" style="font-family:'RobotoCondensed-Bold', 'Roboto Condensed';font-weight:700;font-stretch:condensed;font-size:73.333px;fill:rgb(115,0,49);">D</text>
                        </g>
                        <g transform="matrix(0.213734,-0.976892,0.976892,0.213734,205.803144,1916.948211)">
                            <text x="1293.753px" y="830.625px" style="font-family:'RobotoCondensed-Bold', 'Roboto Condensed';font-weight:700;font-stretch:condensed;font-size:73.333px;fill:rgb(115,0,49);">I</text>
                        </g>
                        <g transform="matrix(0.146515,-0.989208,0.989208,0.146515,309.563882,1974.467112)">
                            <text x="1299.008px" y="807.838px" style="font-family:'RobotoCondensed-Bold', 'Roboto Condensed';font-weight:700;font-stretch:condensed;font-size:73.333px;fill:rgb(115,0,49);">V</text>
                        </g>
                        <g transform="matrix(0.079431,-0.99684,0.99684,0.079431,441.473277,2003.019028)">
                            <text x="1305.223px" y="762.484px" style="font-family:'RobotoCondensed-Bold', 'Roboto Condensed';font-weight:700;font-stretch:condensed;font-size:73.333px;fill:rgb(115,0,49);">I</text>
                        </g>
                        <g transform="matrix(0.009409,-0.999956,0.999956,0.009409,556.13854,2039.383536)">
                            <text x="1307.401px" y="738.994px" style="font-family:'RobotoCondensed-Bold', 'Roboto Condensed';font-weight:700;font-stretch:condensed;font-size:73.333px;fill:rgb(115,0,49);">N</text>
                        </g>
                        <g transform="matrix(-0.08021,-0.996778,0.996778,-0.08021,725.189582,2048.025488)">
                            <text x="1307.516px" y="689.424px" style="font-family:'RobotoCondensed-Bold', 'Roboto Condensed';font-weight:700;font-stretch:condensed;font-size:73.333px;fill:rgb(115,0,49);">E</text>
                        </g>
                    </g>
                    <g>
                        <rect x="54.342" y="617.823" width="96.311" height="5.987" style="fill:rgb(0,58,120);"/>
                        <g transform="matrix(1,0,0,1,873.866845,0)">
                            <rect x="54.342" y="617.823" width="96.311" height="5.987" style="fill:rgb(0,58,120);"/>
                        </g>
                    </g>
                </g>
            </g>
        </g>
    </g>
</svg>
